<svg xmlns="http://www.w3.org/2000/svg" xmlns:xlink="http://www.w3.org/1999/xlink" width="375" height="812" viewBox="0 0 375 812"><defs><style>.a{fill:#fff;stroke:#707070;}.b{clip-path:url(#a);}.c{fill:url(#b);}</style><clipPath id="a"><rect class="a" width="375" height="812"/></clipPath><linearGradient id="b" x1="1" y1="0.5" x2="0" y2="0.5" gradientUnits="objectBoundingBox"><stop offset="0" stop-color="#1d9ea2"/><stop offset="1" stop-color="#10ced5"/></linearGradient></defs><g class="b"><path class="c" d="M1103.01,474.83c-43.147,108.266,203.454,275.305,37.7,507.065C954.592,1242.1,565.2,1152.029,439.263,875.615,409.1,800.288,352.429,688.659,211.31,786.825,15.344,780.852-34.234,603.61,21.3,518.349,154.666,313.568,532.8,398.411,626.069,290.5c75.6-87.464,199.16-345.8,404.378-279.854C1286.208,92.826,1149.636,357.845,1103.01,474.83Z" transform="translate(-886.333 166.557) rotate(-25)"/><path class="c" d="M906.144,486.66c-35.446,110.964,167.141,282.165,30.967,519.7-152.9,266.692-478.42,195.844-576.248-108.928-24.781-77.2-105.147-87.881-187.268-91-160.99-6.122-201.719-187.779-156.1-275.165C127.061,321.38,437.707,408.337,514.328,297.742,576.434,208.1,677.942-56.67,846.533,10.915,1056.645,95.139,944.448,366.761,906.144,486.66Z" transform="matrix(0.105, 0.995, -0.995, 0.105, 947.003, -159.144)"/><path class="c" d="M1103.01,474.83c-43.147,108.266,203.454,275.305,37.7,507.065C954.592,1242.1,565.2,1152.029,439.263,875.615,409.1,800.288,352.429,688.659,211.31,786.825,15.344,780.852-34.234,603.61,21.3,518.349,154.666,313.568,532.8,398.411,626.069,290.5c75.6-87.464,199.16-345.8,404.378-279.854C1286.208,92.826,1149.636,357.845,1103.01,474.83Z" transform="translate(1370.477 992.399) rotate(140)"/></g></svg>