<svg xmlns="http://www.w3.org/2000/svg" width="152.903" height="125.816" viewBox="0 0 152.903 125.816"><defs><style>.a{fill:#d9d9e8;}.b{fill:#211042;}.c{fill:#fff;}.d{fill:#08a5a5;}.e{fill:#10ced5;}.f{fill:none;}.g{fill:#0ec1c1;}.h{fill:#fbbe68;}</style></defs><g transform="translate(-616.788 -15.655)"><g transform="translate(616.788 15.655)"><path class="a" d="M768.052,373.1c0,2.268-33.861,4.107-75.632,4.107s-75.632-1.839-75.632-4.107,33.862-4.107,75.632-4.107,75.632,1.839,75.632,4.107" transform="translate(-616.788 -253.106)"/><path class="b" d="M678.005,265.612h-4.233l18.058-55.762h4.233Z" transform="translate(-655.083 -146.16)"/><path class="b" d="M843.255,265.612h4.233L829.43,209.85H825.2Z" transform="translate(-756.845 -146.16)"/><rect class="b" width="40.45" height="6.204" transform="translate(34.405 74.38)"/><path class="c" d="M723.281,244.535a.418.418,0,1,1-.419-.418.419.419,0,0,1,.419.418" transform="translate(-687.792 -169.189)"/><path class="c" d="M719.292,256.1a.418.418,0,1,1-.419-.418.419.419,0,0,1,.419.418" transform="translate(-685.112 -176.962)"/><path class="c" d="M840.972,244.535a.418.418,0,1,0,.418-.418.419.419,0,0,0-.418.418" transform="translate(-767.447 -169.189)"/><path class="c" d="M844.961,256.1a.418.418,0,1,0,.418-.418.418.418,0,0,0-.418.418" transform="translate(-770.127 -176.962)"/><rect class="b" width="64.229" height="2.761" transform="translate(23.434 61.128)"/><path class="a" d="M1023.971,110.706l3.735.038s4.231-1.857,4.536.929-.762,4.642-1.754,2.4c-.266-.62-.419-.89-.419-.89l-.762.426-1.867-1.78-3.278.425Z" transform="translate(-890.427 -79.151)"/><path class="a" d="M1001.193,136.661l5.87-.967s1.6-.658,1.905,2.4-.114,4.914-1.829,3.366a4.675,4.675,0,0,1-1.677-3.288l-3.854-.023Z" transform="translate(-875.12 -96.285)"/><path class="b" d="M906.271,30.391a10.375,10.375,0,0,0,2.961-3.21c-3.835-3.825-14.6-8.606-19.984-7.308-4.575,10.928-1.817,22.608-1.817,22.608l2.625.409.471-3.142.135,3.21,3.23.615,4.508.615.4-1.981.27,1.913,3.5.751,1.818-10.177Z" transform="translate(-798.114 -18.344)"/><path class="d" d="M863.662,172.3s-8.049,1.562-11.6,13.939a27.257,27.257,0,0,0,2.6,21.509s-5.327,3.125-6.629,11.416,1.776,20.067,1.776,20.067l2.012-.841,14.087-52.03,4.735,24.393s-5.682,6.489-2.486,16.462,5.563,12.377,5.563,12.377l1.657-1.682.039-64.43Z" transform="translate(-771.979 -120.925)"/><path class="e" d="M899.657,94.257a26.636,26.636,0,0,0-14.4,5.392c1.621,9.412,3.691,19.829,3.691,19.829s-2.25.183.721,1.1,10.983.457,10.983.457l3.421-15.352s-.811-4.3-2.521-6.4l11.433,4.752L930.9,101.75l-.09-2.193-16.294.64s0-.914-1.171.091c-3.24-1.37-13.683-6.031-13.683-6.031" transform="translate(-797.205 -68.478)"/><path class="a" d="M917.96,45.167s1.855,8.041-.857,14.127c-2.926.724-8.922-1.087-8.922-1.087L908.04,63.5s3.711,4.347,1.142,3.478-5.71-4.129-5.71-4.129l1.642-6.52-.571-11.664s11.562-1.811,13.418.507" transform="translate(-809.448 -34.695)"/><path class="b" d="M917.157,42.828s-1.749,4.3-4.71,6.079-3.162,1.23-1.413-.2a11.046,11.046,0,0,1-6.123,1.23l-.4-7.787s10.967-.546,12.649.683" transform="translate(-810.145 -33.376)"/><path class="a" d="M902.324,65.163s-2-3.188-3.354-.435,2.5,4.564,3.425,2.97" transform="translate(-806.231 -47.881)"/><path class="e" d="M894.344,106.517l14.224,11.24,18.365-.914.45,1.736-19.625,3.107L890.743,110.72" transform="translate(-800.894 -76.717)"/><path class="b" d="M906.655,129.59c-1.287-.917-2.594-1.8-3.9-2.681l-3.956-2.6-4-2.529c-1.342-.83-2.686-1.655-4.052-2.447,1.286.918,2.594,1.8,3.9,2.681l3.956,2.6,4,2.528c1.341.83,2.686,1.656,4.051,2.447" transform="translate(-800.894 -85.331)"/><path class="b" d="M901.722,106.517c1.031.908,2.084,1.785,3.142,2.658l3.2,2.583,3.251,2.516c1.093.827,2.189,1.649,3.31,2.439-1.03-.908-2.084-1.785-3.142-2.658l-3.2-2.581-3.252-2.516c-1.093-.827-2.189-1.649-3.309-2.44" transform="translate(-808.272 -76.717)"/><path class="b" d="M926.058,372.346l11.494,5H923.123l1.3-3.867Z" transform="translate(-822.654 -255.362)"/><path class="b" d="M854.29,373.812l6.973,4.92h-9.879l.894-4.078Z" transform="translate(-774.443 -256.347)"/><path class="b" d="M938.844,67.3c0,.772.042,1.542.109,2.308l.008.1.1.022c.471.1.94.218,1.416.3l-.006-.278c-.9.238-1.785.5-2.659.822.922-.131,1.826-.327,2.726-.545l.575-.139-.581-.139c-.47-.113-.946-.192-1.42-.284l.1.117c-.094-.763-.215-1.523-.372-2.279" transform="translate(-832.525 -50.364)"/><path class="b" d="M926.376,74.37a5.739,5.739,0,0,0,.237,1.705,2.941,2.941,0,0,0,.92,1.5,1.675,1.675,0,0,0,1.728.113,5.409,5.409,0,0,0,.744-.44c.211-.2.426-.381.627-.581-.244.148-.474.307-.708.458a5.464,5.464,0,0,1-.744.346,1.468,1.468,0,0,1-1.472-.139,2.887,2.887,0,0,1-.88-1.329,9.865,9.865,0,0,1-.451-1.63" transform="translate(-824.84 -55.113)"/><path class="b" d="M901.238,66.424a1.071,1.071,0,0,1,.845-.039,1.818,1.818,0,0,1,.664.517,6.661,6.661,0,0,1,.851,1.565l.092-.165a2.832,2.832,0,0,0-.344.112c-.1.06-.267.08-.3.3.036.2.183.224.28.284a1.545,1.545,0,0,0,.335.107,3.157,3.157,0,0,1-.293-.182c-.085-.059-.186-.164-.168-.207-.008-.032.113-.09.208-.112a2.875,2.875,0,0,1,.323-.06l.144-.022-.051-.142a8.025,8.025,0,0,0-.354-.869,3.543,3.543,0,0,0-.527-.791,1.615,1.615,0,0,0-.813-.514.989.989,0,0,0-.9.216" transform="translate(-807.947 -49.607)"/><path class="b" d="M935.393,66.96c0,.3.156.549.348.549s.349-.246.349-.549-.156-.549-.349-.549-.348.245-.348.549" transform="translate(-830.9 -49.765)"/><path class="b" d="M943.527,67.107c0,.3.156.549.349.549s.349-.245.349-.549-.156-.549-.349-.549-.349.246-.349.549" transform="translate(-836.367 -49.863)"/><path class="b" d="M941.862,61.955s1.576-1.8,1.99.2" transform="translate(-835.248 -46.269)"/><path class="b" d="M933.74,61.262s-1.431-2.207-2.568.067" transform="translate(-828.064 -45.659)"/><rect class="f" width="149.014" height="125.816" transform="translate(3.889 0)"/></g><g transform="translate(643.17 58.74)"><path class="d" d="M773.458,175.785h0a.5.5,0,0,1,0-.7l6.127-6.127a.5.5,0,1,1,.7.7l-6.127,6.127a.5.5,0,0,1-.7,0" transform="translate(-748.359 -161.666)"/><path class="d" d="M845.322,187.327h0a3.69,3.69,0,0,1-3.69-3.69v-3.479h7.381v3.479a3.69,3.69,0,0,1-3.69,3.69" transform="translate(-794.272 -169.291)"/><path class="d" d="M839.028,186.179a1.494,1.494,0,0,1-1.492-1.492v-2.563h1.343v.365H837.9v2.2a1.128,1.128,0,0,0,1.127,1.127Z" transform="translate(-791.519 -170.613)"/><rect class="g" width="10.775" height="8.22" transform="translate(8.662 9.816)"/><path class="e" d="M732.167,169.191h-6.282l-2.247,2.547h10.775Z" transform="translate(-714.976 -161.921)"/><rect class="g" width="6.282" height="1.411" transform="translate(10.909 5.859)"/><path class="d" d="M742.588,166.3v-1.411h-1.2V166.3l-2.247,2.547v8.22h5.689v-8.22Z" transform="translate(-725.398 -159.029)"/><path class="e" d="M762.153,179.663H747.989l1.334,6.047a1.638,1.638,0,0,0,1.6,1.285h8.3a1.637,1.637,0,0,0,1.6-1.285Z" transform="translate(-731.341 -168.959)"/><path class="e" d="M760.573,179.234H744.994a.409.409,0,0,1,0-.819h15.579a.409.409,0,0,1,0,.819" transform="translate(-729.053 -168.12)"/><path class="e" d="M822.415,155.434l-.718-1.1a1.406,1.406,0,0,1-.223-.64l-.07-.771-.276-3.047-.1-1.1h-1.791l-.1,1.1-.276,3.047-.07.771a1.41,1.41,0,0,1-.223.64l-.718,1.1a1.4,1.4,0,0,0-.227.765v9.129a.91.91,0,0,0,.909.909h3.2a.909.909,0,0,0,.909-.909V156.2a1.4,1.4,0,0,0-.227-.765" transform="translate(-778.14 -148.202)"/><path class="d" d="M824.11,147.483l-.236-.382a.159.159,0,0,0-.136-.076H822.31a.16.16,0,0,0-.136.076l-.236.382a.076.076,0,0,0,.064.116h2.046a.076.076,0,0,0,.064-.116" transform="translate(-781.028 -147.025)"/><rect class="d" width="3.287" height="2.205" transform="translate(41.216 11.234)"/><path class="a" d="M809.406,191.385a1.666,1.666,0,0,1-3.332,0c0-.92.746-2.679,1.666-2.679s1.666,1.759,1.666,2.679" transform="translate(-770.375 -175.036)"/><path class="a" d="M795.671,191.385a1.666,1.666,0,0,1-3.332,0c0-.92.746-2.679,1.666-2.679s1.666,1.759,1.666,2.679" transform="translate(-761.145 -175.036)"/><path class="a" d="M781.936,191.385a1.666,1.666,0,1,1-3.332,0c0-.92.746-2.679,1.666-2.679s1.666,1.759,1.666,2.679" transform="translate(-751.915 -175.036)"/><path class="a" d="M768.2,191.385a1.666,1.666,0,0,1-3.332,0c0-.92.746-2.679,1.666-2.679s1.666,1.759,1.666,2.679" transform="translate(-742.685 -175.036)"/><path class="d" d="M766.535,198.463A1.666,1.666,0,0,0,768.2,196.8c0-.012,0-.026,0-.038h-3.329c0,.012,0,.026,0,.038a1.666,1.666,0,0,0,1.666,1.666" transform="translate(-742.685 -180.448)"/><path class="d" d="M806.074,196.8a1.666,1.666,0,0,0,3.332,0c0-.012,0-.026,0-.038h-3.329c0,.012,0,.026,0,.038" transform="translate(-770.375 -180.448)"/><path class="d" d="M792.338,196.8a1.666,1.666,0,1,0,3.332,0c0-.012,0-.026,0-.038H792.34c0,.012,0,.026,0,.038" transform="translate(-761.145 -180.448)"/><path class="d" d="M778.6,196.8a1.666,1.666,0,1,0,3.332,0c0-.012,0-.026,0-.038h-3.329c0,.012,0,.026,0,.038" transform="translate(-751.915 -180.448)"/><rect class="d" width="17.9" height="0.423" transform="translate(21.657 16.09)"/><path class="h" d="M698.407,188.525l-.051-.044.051.044" transform="translate(-697.986 -174.885)"/><path class="h" d="M697.993,188.181c-.033-.028-.067-.055-.1-.081.034.025.067.053.1.081" transform="translate(-697.674 -174.629)"/><path class="h" d="M697.335,187.689c-.036-.026-.072-.051-.108-.075.036.024.073.048.108.075" transform="translate(-697.227 -174.302)"/></g><path class="d" d="M1048.256,116.117h0a.685.685,0,0,1,0-.968l8.462-8.461a.684.684,0,1,1,.968.968l-8.461,8.461a.685.685,0,0,1-.969,0" transform="translate(-289.825 -61.042)"/><path class="e" d="M1032.644,121.474h-19.561l1.842,8.351a2.261,2.261,0,0,0,2.208,1.774h11.461a2.261,2.261,0,0,0,2.208-1.774Z" transform="translate(-266.322 -71.113)"/><path class="e" d="M1030.461,120.882h-21.514a.565.565,0,1,1,0-1.131h21.514a.565.565,0,0,1,0,1.131" transform="translate(-263.163 -69.956)"/></g></svg>