<svg xmlns="http://www.w3.org/2000/svg" xmlns:xlink="http://www.w3.org/1999/xlink" width="196" height="158" viewBox="0 0 196 158"><defs><style>.a,.f{fill:#fff;}.a{stroke:#707070;}.b{fill:none;}.c{clip-path:url(#a);}.d{fill:#d9d9e8;}.e{fill:#fac3d2;}.g{clip-path:url(#b);}.h{fill:#56c4f3;}.i{clip-path:url(#c);}.j{fill:#10ced5;}.k{fill:#2b75b2;}.l{fill:#211042;}.m{fill:#3a406d;}.n{fill:#273047;}.o{fill:#e5e5e5;}.p{fill:#08a5a5;}.q{clip-path:url(#d);}.r{fill:#f3faff;}.s{clip-path:url(#f);}</style><clipPath id="a"><rect class="a" width="196" height="158" transform="translate(90 1858)"/></clipPath><clipPath id="b"><rect class="b" width="23.274" height="8.749"/></clipPath><clipPath id="c"><rect class="b" width="23.536" height="5.892"/></clipPath><clipPath id="d"><rect class="b" width="24.28" height="24.28"/></clipPath><clipPath id="f"><rect class="b" width="24.281" height="24.28"/></clipPath></defs><g class="c" transform="translate(-90 -1858)"><g transform="translate(-2232.187 1363.686)"><path class="d" d="M2495.744,809.442c-2.943,10.929-151.732,10.006-151.557,0,2.942-10.929,151.734-10.006,151.557,0" transform="translate(0 -180.087)"/><path class="e" d="M2450.483,608.8s.313-2.288.947-1.585a7.785,7.785,0,0,1,1.132,2.184s8.267-.838,9.358-2.8c.654-1.174,1.011-10.312.743-12.13a14.689,14.689,0,0,0,5.25-.423,11.1,11.1,0,0,0,1.439-.526c.568,3.505-.153,15.73-3.095,17.873-3.369,2.453-13.247,1.234-14.358,1.687s-4.28.465-4.162-1.36.663-4.846,2.746-2.923" transform="translate(-62.006 -55.491)"/><path class="e" d="M2528.969,686.264l3.178,46.533,4.225.919s-.516-8.318.14-13.122,2.227-10.6.98-17.854-.579-17.119-.579-17.119Z" transform="translate(-110.652 -110.645)"/><path class="e" d="M2487.2,687.6l-3.114,46.538h4.065a79.1,79.1,0,0,1,1.9-11.505c1.3-4.671,3.632-10.207,3.373-17.559s1.73-17.042,1.73-17.042Z" transform="translate(-83.774 -111.829)"/><path class="f" d="M2540.227,754.291c-.356,2.718-.9,5.185-1.234,7.424-.718,4.8-.155,13.122-.155,13.122l-4.617-.919-1.465-19.627Z" transform="translate(-112.92 -151.766)"/><path class="f" d="M2492.336,754.291c-.765,3.09-1.779,5.81-2.5,8.277a75.946,75.946,0,0,0-2,11.506h-4.263l1.387-19.783Z" transform="translate(-83.472 -151.766)"/><g transform="translate(2402.987 574.977)"><g class="g" transform="translate(0)"><path d="M2536.913,685.621s-.261,3.859-.152,8.525a23.479,23.479,0,0,1-7.262-.124l-.531-7.759Z" transform="translate(-2513.638 -685.621)"/><path d="M2490.756,694.14l.438-6.542,7.958.433s-.627,3.054-1.131,7.033a16.905,16.905,0,0,1-7.265-.924" transform="translate(-2490.756 -686.805)"/></g></g><path class="h" d="M2512.966,647.65l2,20.868a22.416,22.416,0,0,1-11.593,0s-.635-4.733-1.1-8.018-1.962-3.284-1.962-3.284l-.771,11.069a17.361,17.361,0,0,1-11.091-.816l1.522-20.768Z" transform="translate(-86.386 -87.338)"/><g transform="translate(2403.355 559.362)"><g class="i" transform="translate(0 0)"><path d="M2505.165,652.452c-6.591-.72-10.375-2.312-13.491-2.645l.228-3.106,23,.949.311,3.247c-1.484.811-4.8,2.129-10.045,1.555" transform="translate(-2491.674 -646.701)"/></g></g><path class="j" d="M2514.571,569.367c-2.537-2.767-8.822-6.863-17.587-6.863a19.279,19.279,0,0,0-10.243,2.841c-4.555,3.056-6.228,13.14-6.228,13.14a6.144,6.144,0,0,0,5.225.8s-.895,10.628-1.245,13.573c-.368,3.166-.6,5.226-.6,5.226,3.344,0,7.208,1.9,14.589,2.71s10.957-2.133,10.957-2.133c-.05-1.218-.1-2.425-.145-3.609l-.253-6.419c-.209-5.377.34-6.291.34-6.291.163.031.313.05.471.076a13.3,13.3,0,0,0,6.315-.322,6.791,6.791,0,0,0,2.152-1.08s-1.211-8.88-3.749-11.649" transform="translate(-81.635 -36.917)"/><path class="k" d="M2515.011,567.544a5.612,5.612,0,0,1-3.238-.8,2.687,2.687,0,0,1-1.107-2.231v-1.575a40.783,40.783,0,0,1,4.373-.428,27.121,27.121,0,0,1,5.2.505v1.374a1.943,1.943,0,0,1-.466,1.264,5.946,5.946,0,0,1-4.762,1.893" transform="translate(-99.692 -36.922)"/><path class="d" d="M2514.154,523.568v9.4a1.208,1.208,0,0,1-.228.72,4.754,4.754,0,0,1-4.061,1.748c-2.232,0-3.073-.87-3.385-1.448a1.558,1.558,0,0,1-.18-.745V528.8s-4.234.112-4.234-3.509V510.59h12.088l3.539,6.008-1.59,7.082Z" transform="translate(-94.542 -5.832)"/><path class="l" d="M2516.7,526.387c-.073-.674-.393-1.651-1.2-1.735s-1.452.93-1.612,1.606c-.02.084.092.166.155.091.3-.355.626-1.052,1.095-1.2.783-.254,1.108.7,1.24,1.285.039.174.337.14.318-.043" transform="translate(-101.62 -14.249)"/><path class="l" d="M2507.323,526.387c-.073-.674-.393-1.651-1.2-1.735s-1.453.93-1.612,1.606c-.02.084.092.166.156.091.3-.355.626-1.052,1.095-1.2.781-.254,1.107.7,1.239,1.285.04.174.338.14.318-.043" transform="translate(-96.007 -14.249)"/><path class="l" d="M2510.752,530.95c-.406.5-1.089,1.291-.973,2,.1.631.752.841,1.3.9.2.022.218-.277.045-.338a2.534,2.534,0,0,1-.8-.357c-.329-.285-.188-.676-.021-1a11.341,11.341,0,0,0,.541-1.141c.021-.054-.063-.1-.1-.058" transform="translate(-99.153 -18.013)"/><path class="h" d="M2524.426,796.779c-.787-.083-.7-2.673-1.727-2.426s-.905,1.521-.412,2.426a2.07,2.07,0,0,1,.206,1.644s-.486.848-2.583,1.3a7.625,7.625,0,0,1-3.265.14,2.015,2.015,0,0,0-.452,2.591h14.4s-.077-5.529-.9-5.84-.973,1.135-.973,1.135Z" transform="translate(-102.856 -175.745)"/><rect class="m" width="14.402" height="1.524" transform="translate(2413.336 626.708)"/><path class="n" d="M2530.949,804.235c-.127.413.442,1.007.771,1.2a.093.093,0,0,0,.134-.1,2.72,2.72,0,0,0-.351-.726c-.116-.189-.2-.384-.425-.442a.108.108,0,0,0-.129.074" transform="translate(-111.827 -181.627)"/><path class="n" d="M2528.184,805.555a1.272,1.272,0,0,0,.383,1.048.192.192,0,0,0,.319-.185,2.445,2.445,0,0,0-.461-.927.144.144,0,0,0-.24.063" transform="translate(-110.176 -182.401)"/><path class="n" d="M2525.293,806.293a1.371,1.371,0,0,0,.524,1.063.181.181,0,0,0,.3-.176,1.839,1.839,0,0,0-.6-.978.153.153,0,0,0-.223.09" transform="translate(-108.447 -182.841)"/><path class="n" d="M2531.277,801.488a1.256,1.256,0,0,0-.609-.256,2.248,2.248,0,0,1-.88-.429c.137.151.445.35.63.519a4.662,4.662,0,0,0,.634.514c.049.03.095-.029.073-.075a2.772,2.772,0,0,0-1.009-1.093c-.19-.117-.554-.259-.642.049-.091.327.374.514.6.615.312.141.875.412,1.2.207a.032.032,0,0,0,.007-.051" transform="translate(-110.947 -179.456)"/><path class="h" d="M2471.39,796.779c-.787-.083-.7-2.673-1.727-2.426s-.905,1.521-.411,2.426a2.072,2.072,0,0,1,.206,1.644s-.486.848-2.584,1.3a7.624,7.624,0,0,1-3.265.14,2.015,2.015,0,0,0-.452,2.591h14.4s-.076-5.529-.9-5.84-.972,1.135-.972,1.135Z" transform="translate(-71.097 -175.745)"/><rect class="m" width="14.402" height="1.524" transform="translate(2392.06 626.708)"/><path class="n" d="M2477.913,804.235c-.126.413.442,1.007.771,1.2a.093.093,0,0,0,.134-.1,2.728,2.728,0,0,0-.352-.726c-.116-.189-.2-.384-.425-.442a.108.108,0,0,0-.129.074" transform="translate(-80.068 -181.627)"/><path class="n" d="M2475.148,805.555a1.271,1.271,0,0,0,.383,1.048.192.192,0,0,0,.319-.185,2.431,2.431,0,0,0-.461-.927.144.144,0,0,0-.24.063" transform="translate(-78.417 -182.401)"/><path class="n" d="M2472.257,806.293a1.371,1.371,0,0,0,.524,1.063.181.181,0,0,0,.3-.176,1.838,1.838,0,0,0-.6-.978.153.153,0,0,0-.223.09" transform="translate(-76.688 -182.841)"/><path class="n" d="M2478.241,801.488a1.255,1.255,0,0,0-.609-.256,2.247,2.247,0,0,1-.88-.429c.137.151.445.35.63.519a4.677,4.677,0,0,0,.634.514c.049.03.095-.029.073-.075a2.767,2.767,0,0,0-1.009-1.093c-.19-.117-.554-.259-.642.049-.091.327.374.514.6.615.313.141.875.412,1.2.207a.033.033,0,0,0,.007-.051" transform="translate(-79.188 -179.456)"/><path class="l" d="M2510.038,515.487a3.763,3.763,0,0,0,1.175,3.1,3.125,3.125,0,0,0,3.2.588,2.68,2.68,0,0,0,1.612-2.754c-.071-.471-.278-.912-.365-1.38-.4-2.142,1.769-4.164,1.314-6.294a2.7,2.7,0,0,0-.866-1.467c-.589-.51-1.382-.749-1.946-1.287-.92-.881-1.009-2.318-1.675-3.4a3.687,3.687,0,0,0-4.287-1.48c-.626.234-1.182.64-1.825.824-2.022.581-4.033-1.176-6.136-1.076a4.018,4.018,0,0,0-2.9,1.558,5.283,5.283,0,0,0-1.071,3.156,3.962,3.962,0,0,0,.351,1.839,2.288,2.288,0,0,0,1.375,1.216c1.458.414,2.9-.995,4.4-.8a10.273,10.273,0,0,1,1.948.739,3.7,3.7,0,0,0,3.206-.4,1.388,1.388,0,0,1,.729-.329c.5,0,.768.639.689,1.137s-.361.95-.4,1.451c-.028.317.119.712.437.735.279.019.473-.256.657-.467a2.063,2.063,0,0,1,2.729-.247,1.2,1.2,0,0,1,.4.51,1.743,1.743,0,0,1,.02.845c-.1.674-.3,1.484-.958,1.671-.355.1-.76-.02-1.091.143a1.127,1.127,0,0,0-.519.917c-.043.363-.187.563-.214.954" transform="translate(-91.075)"/><path class="o" d="M2540.227,754.291c-.081.625-.175,1.233-.272,1.833h-7.063l-.136-1.833Z" transform="translate(-112.92 -151.766)"/><path class="o" d="M2486.847,754.291h7.368c-.156.629-.327,1.233-.5,1.833h-7Z" transform="translate(-85.352 -151.766)"/><path class="d" d="M2522.825,618.705s.313-2.288.947-1.585a7.78,7.78,0,0,1,1.133,2.184s8.266-.838,9.357-2.8c.654-1.174.451-3.672.184-5.491a14.65,14.65,0,0,0,5.25-.422,10.931,10.931,0,0,0,1.439-.526c.568,3.505.407,9.091-2.535,11.234-3.368,2.453-13.246,1.234-14.358,1.687s-4.279.465-4.162-1.36.663-4.846,2.746-2.923" transform="translate(-105.327 -65.401)"/><path class="f" d="M2426.377,623.415a2.769,2.769,0,0,1,3.82-3.757,3.9,3.9,0,0,1,2.058-4.388,5.27,5.27,0,0,0,8.363-4.09,4.751,4.751,0,0,1,5.319,2.473,5.522,5.522,0,0,1,2-5.571,7.731,7.731,0,0,1,12.72,6.426,2.224,2.224,0,0,1,3.084-1.1,3.126,3.126,0,0,1,1.437,3.2,4.589,4.589,0,0,1,2.794-3.507,3.928,3.928,0,0,1,4.281,1.037,3.436,3.436,0,0,1,.058,4.312c.551-.931,2.087-.571,2.718.309a2.931,2.931,0,0,1-1.96,4.608" transform="translate(-49.008 -63.13)"/><rect class="l" width="119.364" height="68.699" transform="translate(2359.933 560.834)"/><path class="p" d="M2403.964,611.357a3.4,3.4,0,0,0,.666-2.043c.124-1,.169-2.009.2-3.013q.084-2.824.021-5.65c-.042-1.989-.171-3.97-.285-5.956a10.081,10.081,0,0,1,.581-4.855c1.184-2.579,4.373-4.4,7.026-2.657,2.51,1.649,2.081,5.08,2.231,7.654a1.212,1.212,0,0,0,2.423,0,12.8,12.8,0,0,0-1.336-7.75,6.626,6.626,0,0,0-7.1-2.936,7.945,7.945,0,0,0-5.728,5.568c-.972,3.167-.071,6.766.15,9.991q.208,3.01.256,6.026c.017,1,.019,2.009.049,3.014a4.467,4.467,0,0,0,.49,2.561.232.232,0,0,0,.358.047" transform="translate(-34.751 -49.792)"/><rect class="l" width="124.956" height="2.946" transform="translate(2357.137 559.362)"/><g transform="translate(2436.684 535.082)"><g class="q" transform="translate(0)"><path class="j" d="M2599.031,598.317a12.14,12.14,0,1,1-12.141-12.141,12.141,12.141,0,0,1,12.141,12.141" transform="translate(-2574.751 -586.177)"/></g></g><path class="f" d="M2600.654,598.317a12.14,12.14,0,1,1-12.14-12.141,12.141,12.141,0,0,1,12.14,12.141" transform="translate(-139.039 -51.095)"/><path class="r" d="M2602.308,603.333a8.78,8.78,0,1,1-8.78-8.781,8.78,8.78,0,0,1,8.78,8.781" transform="translate(-144.054 -56.11)"/><g transform="translate(2441.46 535.082)"><g class="q"><path class="j" d="M2610.936,598.317a12.14,12.14,0,1,1-12.141-12.141,12.141,12.141,0,0,1,12.141,12.141" transform="translate(-2586.656 -586.177)"/></g></g><path class="f" d="M2612.556,598.317a12.141,12.141,0,1,1-12.141-12.141,12.141,12.141,0,0,1,12.141,12.141" transform="translate(-146.166 -51.095)"/><path class="r" d="M2614.212,603.333a8.78,8.78,0,1,1-8.781-8.781,8.781,8.781,0,0,1,8.781,8.781" transform="translate(-151.182 -56.11)"/><g transform="translate(2446.235 535.082)"><g class="s"><path class="j" d="M2622.839,598.317a12.14,12.14,0,1,1-12.141-12.141,12.141,12.141,0,0,1,12.141,12.141" transform="translate(-2598.559 -586.177)"/></g></g><path class="f" d="M2624.459,598.317a12.14,12.14,0,1,1-12.141-12.141,12.14,12.14,0,0,1,12.141,12.141" transform="translate(-153.294 -51.095)"/><path class="r" d="M2626.116,603.333a8.78,8.78,0,1,1-8.781-8.781,8.781,8.781,0,0,1,8.781,8.781" transform="translate(-158.31 -56.11)"/><g transform="translate(2451.01 535.082)"><g class="s" transform="translate(0)"><path class="j" d="M2634.741,598.317a12.14,12.14,0,1,1-12.141-12.141,12.141,12.141,0,0,1,12.141,12.141" transform="translate(-2610.461 -586.177)"/></g></g><path class="f" d="M2636.364,598.317a12.14,12.14,0,1,1-12.14-12.141,12.141,12.141,0,0,1,12.14,12.141" transform="translate(-160.422 -51.095)"/><path class="r" d="M2638.018,603.333a8.78,8.78,0,1,1-8.78-8.781,8.78,8.78,0,0,1,8.78,8.781" transform="translate(-165.438 -56.11)"/><g transform="translate(2455.785 535.082)"><g class="s"><path class="j" d="M2646.646,598.317a12.14,12.14,0,1,1-12.141-12.141,12.141,12.141,0,0,1,12.141,12.141" transform="translate(-2622.365 -586.177)"/></g></g><path class="f" d="M2648.266,598.317a12.141,12.141,0,1,1-12.141-12.141,12.141,12.141,0,0,1,12.141,12.141" transform="translate(-167.55 -51.095)"/><path class="r" d="M2649.922,603.333a8.78,8.78,0,1,1-8.78-8.781,8.781,8.781,0,0,1,8.78,8.781" transform="translate(-172.566 -56.11)"/><path class="p" d="M2390.634,636.576a.7.7,0,0,0-.65-.822,1.044,1.044,0,0,0-.941.637,2.173,2.173,0,0,0-.127,1.184,4.971,4.971,0,0,0,.306,1.22,1.205,1.205,0,0,0,.659.778c.334.108.779-.2.657-.534a1.988,1.988,0,0,0,.84.859c.378.151.914-.042.95-.449a.917.917,0,0,0,1.323.481,1.491,1.491,0,0,0,.64-1.412,4.374,4.374,0,0,0-.512-1.542,1.52,1.52,0,0,0-.633-.792c-.314-.144-.786.053-.762.4-.212-.468-.54-1.011-1.054-.994a.69.69,0,0,0-.457,1.094" transform="translate(-26.769 -80.682)"/><path class="p" d="M2413.158,636.576a.7.7,0,0,0-.65-.822,1.046,1.046,0,0,0-.941.637,2.175,2.175,0,0,0-.127,1.184,4.948,4.948,0,0,0,.3,1.22,1.208,1.208,0,0,0,.659.778c.335.108.779-.2.658-.534a1.986,1.986,0,0,0,.839.859c.377.151.914-.042.95-.449a.918.918,0,0,0,1.323.481,1.492,1.492,0,0,0,.641-1.412,4.394,4.394,0,0,0-.512-1.542,1.519,1.519,0,0,0-.633-.792c-.313-.144-.786.053-.761.4-.212-.468-.54-1.011-1.053-.994a.69.69,0,0,0-.458,1.094" transform="translate(-40.257 -80.682)"/></g></g></svg>