<svg xmlns="http://www.w3.org/2000/svg" xmlns:xlink="http://www.w3.org/1999/xlink" width="124.978" height="124.985" viewBox="0 0 124.978 124.985"><defs><style>.a,.i{fill:none;}.b{clip-path:url(#a);}.c{fill:#d9d9e8;}.d{fill:#211042;}.e{fill:#fff;}.f{fill:#08a5a5;}.g{fill:#10ced5;}.h{fill:#3c2c37;}.i{stroke:#211042;stroke-miterlimit:10;}</style><clipPath id="a"><rect class="a" width="124.978" height="124.985"/></clipPath></defs><g transform="translate(-170.804 -349)"><g class="b" transform="translate(170.804 349)"><path class="c" d="M295.781,704.322c0,3.077-27.977,5.572-62.488,5.572s-62.49-2.495-62.49-5.572,27.977-5.571,62.49-5.571,62.488,2.495,62.488,5.571" transform="translate(-170.803 -584.909)"/><path class="c" d="M378.627,427.088s1.2-5.125,3.929-4.442,5.979,2.563,3.758,2.819-4.612.512-4.612.512l-1.879,1.709Z" transform="translate(-310.982 -398.632)"/><path class="d" d="M353.961,483.064l11.36-2.818.428,1.2-10.762,2.99Z" transform="translate(-294.344 -437.526)"/><path class="e" d="M388.738,478.741c-.1.026-1.236.474-1.236.474l.736,1.393,2.051-.631Z" transform="translate(-316.968 -436.511)"/><path class="d" d="M390.7,464.6l21.951-6.663s2.221,4.869-4.783,7.773-15.546,2.648-17.169-1.11" transform="translate(-319.124 -422.48)"/><path class="c" d="M332.347,487.314c.341-.086,4.442-.854,4.442-.854s1.794-2.99,3.844-2.819,1.879,5.809.17,6.492-3.843-1.366-3.843-1.366l-4.954.6-.085-1.879" transform="translate(-279.478 -439.811)"/><path class="d" d="M300.46,370.107c.511-.191,3.511-2.107,3.384-3.511-2.937-4.469-8.619-6.128-10.917-6.32s-6.32,4.086-6.639,7.023.191,8.938,4.149,10.087,7.278-4.469,7.278-4.469l2.745-3.256" transform="translate(-248.645 -356.601)"/><path class="f" d="M233.06,515.018s-9.87,2.541-13.289,15.235-1.1,20.506-1.1,20.506a16.1,16.1,0,0,0-4.638,10.375,55.705,55.705,0,0,0,.854,13.3l1.465-.61L233.442,528.3l5.615,22.215s-3.662,5.371-2.564,11.474,5,13.426,5,13.426l1.343-1.1,1.709-54.561-1.465-5.126Z" transform="translate(-199.892 -460.718)"/><path class="g" d="M320.729,435.2l6.47,11.088,11.6-11.434,1.61,1.369-13.367,16.83-7.167-7.811Z" transform="translate(-271.351 -406.907)"/><path class="d" d="M273.87,492.716l.114,6.889,3.7.569Z" transform="translate(-240.323 -445.937)"/><path class="d" d="M276.589,461.063l.871,3.533-5.126,11.077-.916,27.188s-14.1.55-18.4-.458c2.381-10.161,10.229-23.339,10.229-23.339l-3.82-.462-.183-1.1,4.3.458-.183-9.613.626-7.709Z" transform="translate(-226.258 -424.302)"/><path class="g" d="M279.657,429.766s-12.812-3.07-17.472-2.965-3.282,10.059-1.8,14.3,6.883,15.142,6.883,15.142l16.413-4.765-.317-3.283-13.131,2.753-2.541-5.718.318-7.412,12.6.423Z" transform="translate(-230.279 -401.476)"/><path class="c" d="M302.758,378.769s1.183,7.493.474,13.171c-1.972.395-9.385-.394-9.385-.394l-.237,3.549s4.181,8.124,2.6,8.282-4.5-.947-5.284-2.13-2.051-6.7-2.051-6.7l1.814.237,1.578-15.3s10.095-2.918,10.489-.71" transform="translate(-250.445 -368.522)"/><path class="d" d="M281.376,438.208l-3.211-11.124,1.721.287,3.268,11.238Z" transform="translate(-243.219 -401.668)"/><path class="d" d="M315.084,442.941l-3.1-9.69,1.835.344,2.523,9.4Z" transform="translate(-266.033 -405.828)"/><path class="d" d="M277.558,458.65c-.411-1-.778-2.015-1.14-3.031s-.691-2.043-1.038-3.064c-.315-1.032-.648-2.057-.948-3.094s-.593-2.075-.843-3.127c.411,1,.779,2.014,1.142,3.031s.691,2.043,1.036,3.065c.314,1.031.648,2.057.947,3.094s.593,2.074.844,3.127" transform="translate(-240.134 -414.652)"/><path class="d" d="M305.8,375.894s-.123,1.966-3.441,3.564-.615-.615-.615-.615-4.424,2.581-7.62,2.7c-.86-5.654.615-7.129.615-7.129l10.687.7" transform="translate(-253.802 -366.145)"/><path class="d" d="M284.1,355.922s1.277-2.426-2.618-3.575-7.6-.064-7.788,4.405,5.682,7.533,5.682,7.533l4.4-8.236" transform="translate(-240.199 -350.971)"/><path class="c" d="M295.338,395.428s-1.42-1.893-2.524-.395.868,5.363,2.288,3.944" transform="translate(-252.883 -379.661)"/><rect class="d" width="51.267" height="52.338" transform="translate(55.5 65.435)"/><path class="d" d="M213.5,696.5l4.847,5.557h-8.652l2.29-5.268Z" transform="translate(-197.035 -583.392)"/><path class="d" d="M294.011,699.1l-2.229,3.293h13.487L295.354,698l-1.111.819" transform="translate(-252.404 -584.404)"/><rect class="c" width="52.227" height="10.004" transform="translate(55.073 56.201)"/><path class="g" d="M367.263,512.724c.147-.169.362-.291.434-.5a2.836,2.836,0,0,1,.155.631q.458-.426.883-.886a2.129,2.129,0,0,1,.127.817,1.714,1.714,0,0,1,.864-.5l-.025.478.692-.521a1.222,1.222,0,0,0,.217.442,1.443,1.443,0,0,1,.709-.729,2.915,2.915,0,0,0,.143.652.169.169,0,0,0,.052.086.166.166,0,0,0,.117.015,1.4,1.4,0,0,0,.928-.56q.027.3.054.61a1.417,1.417,0,0,1,.535-.8,1.776,1.776,0,0,1,.185.8,5.34,5.34,0,0,0,.459-.856,1.568,1.568,0,0,1,.228.82,1.418,1.418,0,0,0,.624-.837,1.855,1.855,0,0,1,.068.895l.568-.558a3.263,3.263,0,0,1-.059.686l.3-.479a.87.87,0,0,1,.175.511,1.86,1.86,0,0,1-.039.888,1.243,1.243,0,0,1-.785.682,3.576,3.576,0,0,1-1.061.137q-1.539.041-3.079.028a14.966,14.966,0,0,1-2.5-.188c-.522-.093-.883-.174-1.113-.709a1.018,1.018,0,0,1,.141-1.057" transform="translate(-303.164 -458.869)"/><rect class="h" width="7.587" height="0.998" transform="translate(64.278 55.195)"/><rect class="d" width="7.587" height="0.998" transform="translate(84.774 55.195)"/><path class="i" d="M354.468,513.66v-4.137H390.5v4.246" transform="translate(-294.687 -457.273)"/><line class="d" y2="4.463" transform="translate(63.347 51.777)"/><line class="d" y2="4.463" transform="translate(68.235 51.777)"/><line class="d" y2="4.463" transform="translate(73.123 51.777)"/><line class="d" y2="4.463" transform="translate(83.323 51.777)"/><line class="d" y2="4.463" transform="translate(88.211 51.777)"/><line class="d" y2="4.463" transform="translate(93.099 51.777)"/><rect class="d" width="2.125" height="4.604" transform="translate(52.652 59.427)"/><rect class="d" width="2.813" height="0.511" transform="translate(52.942 71.513)"/><rect class="d" width="1.636" height="1.227" transform="translate(52.567 71.155)"/><path class="c" d="M452.174,361.3a2.047,2.047,0,1,0,1.982-2.559,2.326,2.326,0,0,0-1.982,2.559" transform="translate(-360.589 -355.571)"/><path class="c" d="M438.225,361.3a2.047,2.047,0,1,0,1.982-2.559,2.326,2.326,0,0,0-1.982,2.559" transform="translate(-351.181 -355.571)"/><path class="c" d="M424.275,361.3a2.047,2.047,0,1,0,1.981-2.559,2.326,2.326,0,0,0-1.981,2.559" transform="translate(-341.772 -355.571)"/><path class="c" d="M410.324,361.3a2.047,2.047,0,1,0,1.982-2.559,2.326,2.326,0,0,0-1.982,2.559" transform="translate(-332.361 -355.571)"/><path class="c" d="M396.374,361.3a2.047,2.047,0,1,0,1.982-2.559,2.326,2.326,0,0,0-1.982,2.559" transform="translate(-322.952 -355.571)"/><path class="f" d="M398.513,377.146c.257,0-4.612-3.416-6.236-9.225h24.259a19.556,19.556,0,0,1-6.919,9.225c-3.929.854-11.1,0-11.1,0" transform="translate(-320.189 -361.762)"/><rect class="f" width="7.374" height="14.748" transform="translate(99.127 0.63)"/><rect class="e" width="8.144" height="1.802" transform="translate(98.78)"/><rect class="d" width="37.242" height="2.05" transform="translate(70.722 15.383)"/><path class="d" d="M324.2,400.641a12.792,12.792,0,0,1,.511,1.73l-.277-.143a3.977,3.977,0,0,1,.45-.2,1.847,1.847,0,0,1,.52-.135.424.424,0,0,1,.236.052c.1.01.184.281.143.31a.454.454,0,0,1-.068.183.992.992,0,0,1-.079.124,3.234,3.234,0,0,1-.343.37l-.014.013-.008.006a1.342,1.342,0,0,1-.921.233,1.587,1.587,0,0,1-.82-.352,2.075,2.075,0,0,0,.822.1,1.256,1.256,0,0,0,.683-.286l-.021.019c.1-.115.195-.235.276-.346a.486.486,0,0,0,.046-.077c.022-.032.02-.044.019-.035h0a.1.1,0,0,0,.005.051.388.388,0,0,0,.053.063c.059.02.01.012.007.012a1.679,1.679,0,0,0-.4.1l-.426.158-.246.091-.031-.234a12.747,12.747,0,0,1-.124-1.8" transform="translate(-273.816 -383.832)"/><path class="d" d="M316.982,409.206a2.579,2.579,0,0,1-.988.75,1.457,1.457,0,0,1-1.33-.028,1.8,1.8,0,0,1-.711-1.11,4.719,4.719,0,0,1-.077-.62c.012-.208.009-.413.035-.615.125.393.234.772.368,1.131a1.835,1.835,0,0,0,.613.838,1.289,1.289,0,0,0,.992.08,5.6,5.6,0,0,0,1.1-.426" transform="translate(-267.308 -388.514)"/><path class="d" d="M295.874,397.949a.551.551,0,0,1,.274-.27.471.471,0,0,1,.435.046,1.382,1.382,0,0,1,.483.633,3.508,3.508,0,0,1,.227.711,5.615,5.615,0,0,1,.11.724l.027.228-.221-.009c-.1,0-.195-.02-.284-.016a.776.776,0,0,0-.108.01c-.031.01-.009-.015-.025-.027a.426.426,0,0,0,.107.208c.064.079.136.155.21.236a1.306,1.306,0,0,1-.3-.131c-.091-.065-.2-.1-.264-.282a.263.263,0,0,1,.14-.265.652.652,0,0,1,.192-.071,1.945,1.945,0,0,1,.342-.043l-.194.219c-.062-.227-.1-.46-.159-.683s-.11-.449-.176-.661a1.6,1.6,0,0,0-.272-.562.324.324,0,0,0-.234-.114.621.621,0,0,0-.312.121" transform="translate(-255.164 -381.81)"/><path class="h" d="M321.159,397.954c0,.312-.162.565-.362.565s-.361-.253-.361-.565.162-.565.361-.565.362.253.362.565" transform="translate(-271.732 -381.639)"/><path class="d" d="M327.909,398.6c0,.312-.162.565-.362.565s-.362-.253-.362-.565.162-.565.362-.565.362.253.362.565" transform="translate(-276.284 -382.077)"/><path class="d" d="M318.952,391.638s.035-1.906-2.365.423" transform="translate(-269.135 -377.264)"/><path class="d" d="M327,392.852s1.236-1.447,1.694.283" transform="translate(-276.156 -378.196)"/></g></g></svg>