<svg xmlns="http://www.w3.org/2000/svg" xmlns:xlink="http://www.w3.org/1999/xlink" width="121" height="122.055" viewBox="0 0 121 122.055"><defs><style>.a,.k{fill:none;}.b{fill:#d9d9e8;}.c{clip-path:url(#a);}.d{fill:#211042;}.e{fill:#08a5a5;}.f{fill:#784759;}.g{fill:#10ced5;}.h{fill:#fff;}.i{fill:#efefef;}.j{clip-path:url(#b);}.k{stroke:#211042;stroke-miterlimit:10;}</style><clipPath id="a"><rect class="a" width="50.478" height="117.171"/></clipPath><clipPath id="b"><path class="a" d="M2248.436,129.487c-1.435.421-3.157,1.656-2.982,5.18.3,5.953.394,14.023.394,14.023l2.011.393.322,2.346,3.671,2.181,5.609-10.235s-2.4-8.9-5.975-12.948a3.05,3.05,0,0,0-2.268-1.053,2.773,2.773,0,0,0-.781.112" transform="translate(-2245.442 -129.375)"/></clipPath></defs><g transform="translate(-2091.447 -58.307)"><path class="b" d="M2212.446,406.5c-2.349,8.725-121.139,7.989-121,0,2.349-8.726,121.14-7.989,121,0" transform="translate(0 -232.404)"/><g transform="translate(2129.866 58.307)"><path class="b" d="M2327.489,392.589l.048-9.03-4.924-.251-.055,9.717,4.749.03Z" transform="translate(-2286.954 -279.213)"/><g transform="translate(0)"><g class="c"><path class="d" d="M2319.094,405.574s3.889,1.6,5.717-.922l9.448,4.865-16.37-.1Z" transform="translate(-2283.781 -293.721)"/><path class="d" d="M2334.23,421.012l-16.37-.1.01-1.375,16.37.1Z" transform="translate(-2283.761 -303.841)"/><path class="b" d="M2252.219,392.589l1.738-9.03,4.924-.251-1.73,9.717-4.749.03Z" transform="translate(-2239.144 -279.213)"/><path class="d" d="M2238.194,405.574s-3.89,1.6-5.716-.922l-9.449,4.865,16.371-.1Z" transform="translate(-2219.304 -293.721)"/><path class="d" d="M2223.039,421.012l16.37-.1-.01-1.375-16.37.1Z" transform="translate(-2219.304 -303.841)"/><path class="e" d="M2282.069,201.618l-.133,14.391-.893,46.147-8.814.374-.335-47.832-1.73-.024-9.5,47.856-8.39-.659s6.312-44.5,7.2-47.977l2.1-12.276Z" transform="translate(-2239.185 -155.717)"/><path class="f" d="M2245.009,152.4l-6.289,10.664a3.38,3.38,0,0,0,5.548,3.851l7.483-9.982Z" transform="translate(-2229.61 -122.26)"/><path class="g" d="M2257.531,138.093l3.34-6a4.939,4.939,0,0,1,6.518-1.706,4.7,4.7,0,0,1,1.782,6.631l-4.056,6.433Z" transform="translate(-2242.755 -106.896)"/><path class="b" d="M2234.425,158.771h0a3.193,3.193,0,0,1-4.322-2.45l-3.88-14.575,3.375-2.753,7.286,16.043c.422,1.538-.977,3.146-2.459,3.734" transform="translate(-2221.475 -113.151)"/><path class="b" d="M2218.092,136.293a3.977,3.977,0,1,0-.262-5.618,3.977,3.977,0,0,0,.262,5.618" transform="translate(-2215.065 -106.613)"/><path class="b" d="M2228.946,127.585s.772-1.641,2.418-.358,3.063,3.851.607,7.011Z" transform="translate(-2223.326 -104.819)"/><path class="h" d="M2230.478,97.18a9.54,9.54,0,1,1-9.54-9.54,9.54,9.54,0,0,1,9.54,9.54" transform="translate(-2211.398 -78.245)"/><path class="i" d="M2234.664,105.1a5.81,5.81,0,1,1-5.81-5.81,5.81,5.81,0,0,1,5.81,5.81" transform="translate(-2219.314 -86.161)"/><path class="g" d="M2278.149,124.983l-3.978,1.446.57,29.194,22.6.051.85-24.172-1.722-5.545L2291.1,124.1Z" transform="translate(-2254.066 -103.029)"/><path class="b" d="M2291.662,119.527l-5.07,1.843s.2,4.049,6.668,4.119a6.4,6.4,0,0,0,4.793-1.906,7.8,7.8,0,0,0,1.49-3.094l-4.734-1.7Z" transform="translate(-2262.508 -99.416)"/><path class="d" d="M2251.487,130.428a2.972,2.972,0,0,0-3.05-.941c-1.434.421-3.156,1.656-2.982,5.18.3,5.953.393,14.023.393,14.023l2.011.393.322,2.346,3.67,2.181,5.609-10.234s-2.4-8.9-5.975-12.948" transform="translate(-2234.539 -106.612)"/></g></g><g transform="translate(10.904 22.762)"><g class="j"><path class="d" d="M2243.141,129.249,2245.558,149l-3.5.769Z" transform="translate(-2243.141 -129.29)"/></g></g><g transform="translate(0)"><g class="c"><path class="b" d="M2282.865,167.116h0a2.907,2.907,0,0,1-4.55-.271l-10.24-10.758,2.411-2.894,12.349,8.385c.991,1.1,1.017,4.433.03,5.538" transform="translate(-2249.922 -122.801)"/><path class="b" d="M2253.839,147.213a3.978,3.978,0,1,0-2.753-4.906,3.978,3.978,0,0,0,2.753,4.906" transform="translate(-2238.273 -113.431)"/><path class="b" d="M2257.561,137.748s-.045-1.812,2-1.4,4.464,2.069,3.684,6Z" transform="translate(-2242.775 -111.309)"/><path class="b" d="M2305.514,154.913l-6.376,9.581a3.141,3.141,0,0,0,4.955,3.854l7.45-8.886Z" transform="translate(-2270.637 -123.971)"/><path class="g" d="M2315.172,137.137l3.66-5.812a4.939,4.939,0,0,1,6.6-1.35,4.7,4.7,0,0,1,1.419,6.719l-3.477,6.933Z" transform="translate(-2281.934 -106.527)"/><path class="b" d="M2286.694,87.64a2.094,2.094,0,0,1-1.991,2.179,2.071,2.071,0,0,1-2.105-2.049,2.094,2.094,0,0,1,1.991-2.179,2.071,2.071,0,0,1,2.105,2.05" transform="translate(-2259.793 -76.851)"/><path class="b" d="M2298.652,102.024l-.2,5.05a2.469,2.469,0,0,0,2.637,2.81c1.444.042,3.056-.6,3.055-2.161l-.058-7.96Z" transform="translate(-2270.568 -86.485)"/><path class="b" d="M2292.683,78.242h0a5.335,5.335,0,0,1-5.159-4.983l.052-5.093a5.593,5.593,0,0,1,5.326-5.641c3.024-.1,6.074,2.341,6.16,5.464l-.089,3.968a6.349,6.349,0,0,1-6.289,6.284" transform="translate(-2263.142 -61.172)"/><path class="k" d="M2298.83,90.9l-.075,1.255.992,0" transform="translate(-2270.775 -80.459)"/><path class="d" d="M2292.907,87.147a.5.5,0,1,1-.5-.52.511.511,0,0,1,.5.52" transform="translate(-2266.12 -77.556)"/><path class="d" d="M2307.847,87.228a.5.5,0,1,1-.5-.52.51.51,0,0,1,.5.52" transform="translate(-2276.275 -77.612)"/><path class="d" d="M2292.221,80.337s.09.5-.584.491a5.329,5.329,0,0,0-1.133.037.379.379,0,0,1-.417-.191.294.294,0,0,1,.059-.345,1.679,1.679,0,0,1,1.2-.455c.8.006.87.462.87.462" transform="translate(-2264.863 -72.967)"/><path class="d" d="M2305.546,80.317s-.1.5.627.485a6.261,6.261,0,0,1,1.226.027.431.431,0,0,0,.452-.2.275.275,0,0,0-.06-.345,1.857,1.857,0,0,0-1.3-.444c-.865.014-.946.472-.946.472" transform="translate(-2275.388 -72.947)"/><path class="b" d="M2322.369,87.685a2.075,2.075,0,0,1-1.971,2.158,2.1,2.1,0,1,1,1.971-2.158" transform="translate(-2284.068 -76.895)"/><path class="d" d="M2321.983,90.875s.636-1.692,2.01-1.346" transform="translate(-2286.564 -79.498)"/><path class="d" d="M2287.428,88.229s.1,1.585,1.1,1.863,1.333-.518,2.7-.612a6.554,6.554,0,0,1,3.922.923c1.35.651,2.977-3,3.528-4.11.108-.218.336-.059.336-.059l-.355,3.579s-.615,5.1-6.4,4.93-4.823-6.514-4.823-6.514" transform="translate(-2263.036 -77.251)"/><path class="g" d="M2287.524,64.317H2299.2v-.465a5.844,5.844,0,0,0-11.673,0Z" transform="translate(-2263.142 -58.307)"/><path class="e" d="M2292.152,69.992s-6.374-3.49-12.485-2.7.873,3.056.873,3.056h11.612Z" transform="translate(-2256.097 -64.333)"/><path class="d" d="M2321.269,77.072l-.187,3.05-.231,1.071L2320,77.072Z" transform="translate(-2285.214 -71.062)"/><path class="d" d="M2287.557,79.758l-.035-2.748.522.02Z" transform="translate(-2263.141 -71.02)"/><path class="b" d="M2299.127,99.65c0,.241-.832.53-1.7.53s-1.7-.269-1.7-.511.832-.457,1.7-.457,1.7.2,1.7.438" transform="translate(-2268.721 -86.111)"/></g></g></g></g></svg>