<svg xmlns="http://www.w3.org/2000/svg" xmlns:xlink="http://www.w3.org/1999/xlink" width="333" height="498" viewBox="0 0 333 498"><defs><style>.a{fill:#eff3fc;}.b{filter:url(#c);}.c{filter:url(#a);}</style><filter id="a" x="6" y="6" width="327" height="492" filterUnits="userSpaceOnUse"><feOffset dx="3" dy="3" input="SourceAlpha"/><feGaussianBlur stdDeviation="4.5" result="b"/><feFlood flood-color="#919191" flood-opacity="0.259"/><feComposite operator="in" in2="b"/><feComposite in="SourceGraphic"/></filter><filter id="c" x="0" y="0" width="327" height="491.333" filterUnits="userSpaceOnUse"><feOffset dx="-3" dy="-3" input="SourceAlpha"/><feGaussianBlur stdDeviation="4.5" result="d"/><feFlood flood-color="#d6d6d6" flood-opacity="0.259"/><feComposite operator="in" in2="d"/><feComposite in="SourceGraphic"/></filter></defs><g transform="translate(-10.5 -132.5)"><g class="c" transform="matrix(1, 0, 0, 1, 10.5, 132.5)"><rect class="a" width="300" height="465" rx="6" transform="translate(16.5 16.5)"/></g><g class="b" transform="matrix(1, 0, 0, 1, 10.5, 132.5)"><path class="a" d="M6,0H294c3.314,0,6,24.947,6,55.72V408.613c0,30.773-2.686,55.72-6,55.72H6c-3.314,0-6-24.947-6-55.72V55.72C0,24.947,2.686,0,6,0Z" transform="translate(16.5 16.5)"/></g></g></svg>