<svg xmlns="http://www.w3.org/2000/svg" xmlns:xlink="http://www.w3.org/1999/xlink" width="375" height="142" viewBox="0 0 375 142"><defs><style>.a{fill:#fff;stroke:#707070;}.b{clip-path:url(#a);}.c{fill:url(#b);}</style><clipPath id="a"><rect class="a" width="375" height="142"/></clipPath><linearGradient id="b" x1="1" y1="0.5" x2="0" y2="0.5" gradientUnits="objectBoundingBox"><stop offset="0" stop-color="#1d9ea2"/><stop offset="1" stop-color="#10ced5"/></linearGradient></defs><g class="b"><path class="c" d="M805.7,474.786c-19.872,49.862,93.7,126.793,17.361,233.532-85.716,119.84-265.054,78.356-323.053-48.948-13.893-34.692-39.992-86.1-104.985-40.893-90.253-2.751-113.087-84.38-87.512-123.648,61.425-94.313,235.577-55.238,278.532-104.935,34.817-40.282,91.724-159.259,186.239-128.888C890.072,298.852,827.173,420.908,805.7,474.786Z" transform="translate(-687.188 -300.145) rotate(-25)"/><path class="c" d="M790.575,520.807c-19.28,60.356,90.912,153.476,16.844,282.677-83.164,145.06-260.224,106.524-313.435-59.248-13.479-41.993-57.192-47.8-101.86-49.5-87.566-3.33-109.72-102.138-84.907-149.669,59.6-114.161,228.564-66.863,270.24-127.018,33.781-48.759,88.993-192.773,180.694-156.012C872.436,307.849,811.41,455.591,790.575,520.807Z" transform="matrix(0.105, 0.995, -0.995, 0.105, 828.634, -768.135)"/></g></svg>