<svg xmlns="http://www.w3.org/2000/svg" width="248.318" height="144.73" viewBox="0 0 248.318 144.73"><defs><style>.a{fill:#eff3fc;}</style></defs><g transform="translate(-572.454 -285)"><g transform="translate(635.932 344.883)"><path class="a" d="M776.182,510.886a4.553,4.553,0,0,1-.306,1.1q-.859,3.923-1.349,7.847t-1.1,7.847a8.279,8.279,0,0,0-.184.981,4.549,4.549,0,0,1-.306,1.1,3.265,3.265,0,0,1-2.268,2.514,3.667,3.667,0,0,1-3.372-1.042q-.368-.368-.736-.675t-.735-.674a7.353,7.353,0,0,1-2.329-5.272,40.332,40.332,0,0,1,.429-5.947q.429-2.881,1.042-5.7,1.349-6.989,3.188-13.671t3.8-13.548a35.379,35.379,0,0,1,1.9-5.272q1.165-2.575,2.145-5.149a.945.945,0,0,0,.123-.368.354.354,0,0,1,.122-.246,3.649,3.649,0,0,0,.552-1.042.85.85,0,0,1,.92-.551,1.566,1.566,0,0,1,1.1.674,6.335,6.335,0,0,1,.613,1.165,10.707,10.707,0,0,1,.49,2.207,19.978,19.978,0,0,1,.123,2.207q-.123,2.7-.245,5.272a40.2,40.2,0,0,1-.613,5.272v1.226a12.363,12.363,0,0,0,1.471-2.943,28.943,28.943,0,0,1,1.1-2.819q1.717-3.924,3.556-7.725t3.923-7.6a22.4,22.4,0,0,1,4.659-5.885,6.476,6.476,0,0,1,3.556-1.839,5.461,5.461,0,0,1,3.678,1.594,9.288,9.288,0,0,1,2.82,3.678,19.586,19.586,0,0,1,1.226,4.414,26.572,26.572,0,0,1-.613,12.751,33.422,33.422,0,0,1-6.13,11.157,25.4,25.4,0,0,1-4.352,4.291q-2.391,1.839-4.843,3.555a1.631,1.631,0,0,1-.552.368,1.641,1.641,0,0,0-.552.368q.245.613.674.674a1.9,1.9,0,0,1,.8.307q11.525,5.272,15.081,16.92a15.149,15.149,0,0,1-.123,10.237,16.215,16.215,0,0,1-6.13,7.785,44.335,44.335,0,0,1-18.146,6.5,22.854,22.854,0,0,1-11.648-1.349,10.833,10.833,0,0,1-6.375-5.762l-.92-1.839a19.2,19.2,0,0,1-.8-1.839,1.528,1.528,0,0,1-.123-.674.911.911,0,0,1,.245-.674.665.665,0,0,1,.613-.184,4.876,4.876,0,0,1,.736.184,20.23,20.23,0,0,0,5.333,1.41,22.766,22.766,0,0,0,5.272,0,39.7,39.7,0,0,0,5.272-.981q2.636-.674,5.211-1.532a20.571,20.571,0,0,0,4.414-1.717,40.879,40.879,0,0,0,4.046-2.452,17.8,17.8,0,0,0,3.617-3.372,12.505,12.505,0,0,0,2.268-4.475,4.122,4.122,0,0,0-1.1-4.781,15.755,15.755,0,0,0-9.073-5.027q-2.7-.368-5.395-.8a29.68,29.68,0,0,1-5.15-1.288A2.322,2.322,0,0,0,776.182,510.886Zm14.468-20.66a26.874,26.874,0,0,0,6.191-9.624,46.139,46.139,0,0,0,2.084-7.173,18.079,18.079,0,0,0-.123-7.54,1.363,1.363,0,0,0-1.165.246,8.434,8.434,0,0,1-.8.613,34.7,34.7,0,0,0-6.621,8.828q-1.1,2.33-2.268,4.6t-2.146,4.6l-2.7,6.131q-1.348,3.065-2.575,6.621A42.029,42.029,0,0,0,790.65,490.227Z" transform="translate(-760.427 -462.326)"/><path class="a" d="M913.917,560.769a20.156,20.156,0,0,1-2.084,6.927,8.568,8.568,0,0,1-2.942,3.31,7.851,7.851,0,0,1-3.495,1.472,5.3,5.3,0,0,1-3.74-1.1l-.122-.123a12.375,12.375,0,0,1-5.518-4.843q-1.471-2.759-.368-8.276a19.805,19.805,0,0,1,1.287-3.494,31.671,31.671,0,0,1,1.9-3.372,6.213,6.213,0,0,1,3.923-2.943,6.807,6.807,0,0,1,4.781.858,15.626,15.626,0,0,0,4.6,1.41,20.186,20.186,0,0,0,4.721.061q.98-.122,2.084-.245a18.941,18.941,0,0,1,2.084-.123,2.5,2.5,0,0,1,1.1,0q.491.123.49.981a1.48,1.48,0,0,1-1.226,1.717q-1.226.244-2.452.429a10.756,10.756,0,0,1-2.575.062h-1.9a7.807,7.807,0,0,0-1.9.245A12.894,12.894,0,0,1,913.917,560.769Zm-11.4-20.537a2.748,2.748,0,0,1-.429-1.287q.062-.307.92-.92l.491-.245.49-.245a23.479,23.479,0,0,0,2.881-.92q1.409-.552,2.758-1.165a3.384,3.384,0,0,1,2.82,0,3.883,3.883,0,0,1,1.839,2.084,1.077,1.077,0,0,1-.49,1.472,19.382,19.382,0,0,1-7.847,2.819A3.159,3.159,0,0,1,902.515,540.233Zm2.636,26.3a.249.249,0,0,0,.184.062h.123a1.432,1.432,0,0,0,.306-.184,1.435,1.435,0,0,1,.307-.184,9.16,9.16,0,0,0,3.311-4.291,21.558,21.558,0,0,0,1.1-5.272,3.646,3.646,0,0,0-.981-2.7q-.981-1.349-1.717.123a32.352,32.352,0,0,0-2.82,12.383A.25.25,0,0,1,905.151,566.531Z" transform="translate(-849.671 -510.554)"/><path class="a" d="M995.054,480.636a52.594,52.594,0,0,1-1.839,5.946,79.719,79.719,0,0,1-5.885,12.506,113.376,113.376,0,0,1-7.724,11.525,12.858,12.858,0,0,1-.736,1.1,3.365,3.365,0,0,1-.981.858,3.406,3.406,0,0,0-1.287,1.778,12.458,12.458,0,0,0-.429,2.145,31.094,31.094,0,0,0-.245,3.862v3.863a.854.854,0,0,0,.061.368.853.853,0,0,1,.061.368q.245,2.084.981,2.513t2.7-.307a16.56,16.56,0,0,0,4.9-2.636,20.8,20.8,0,0,0,3.8-3.985q1.226-1.716,2.33-3.494a19.771,19.771,0,0,0,1.839-3.862,5.4,5.4,0,0,1,.49-.981q.246-.367,1.1-.122a1.4,1.4,0,0,1,.858,1.961,14.493,14.493,0,0,0-.613,1.716,10.777,10.777,0,0,1-.735,1.839q-.981,2.207-2.146,4.352t-2.513,4.23a10.4,10.4,0,0,1-5.517,4.782,12.815,12.815,0,0,1-6.743.613,7.471,7.471,0,0,1-3.556-1.594q-1.471-1.226-2.942-2.575a9.866,9.866,0,0,1-3.065-4.72,29.912,29.912,0,0,1-.981-5.456,23.358,23.358,0,0,1,.368-5.395q.49-2.575,1.1-5.15,1.716-6.5,3.678-12.689a122.356,122.356,0,0,1,4.659-12.322q1.349-3.065,2.943-6.008a36,36,0,0,1,3.678-5.517q.613-.735,1.226-1.349l1.226-1.226a5.643,5.643,0,0,1,4.169-2.146q2.084.061,4.659,2.636a8.094,8.094,0,0,1,2.085,6.375A38.361,38.361,0,0,1,995.054,480.636Zm-4.169-10.115a7.977,7.977,0,0,0-.736.858,23.712,23.712,0,0,0-2.7,4.107q-1.1,2.146-2.084,4.475a68.864,68.864,0,0,0-3.863,11.1q-1.41,5.578-2.758,11.464-.245.982-.552,2.084a8.239,8.239,0,0,0-.306,2.208l.49-.246a4.5,4.5,0,0,1,.552-.674,4.432,4.432,0,0,0,.552-.674,69.614,69.614,0,0,0,6.989-11.954,85.326,85.326,0,0,0,4.659-12.935,26.055,26.055,0,0,0,.981-5.088,24.574,24.574,0,0,0-.123-5.456A4.273,4.273,0,0,0,990.886,470.521Z" transform="translate(-896.722 -464.382)"/><path class="a" d="M1059.875,557.812a20.128,20.128,0,0,1-2.084,6.927,8.562,8.562,0,0,1-2.942,3.31,7.851,7.851,0,0,1-3.495,1.472,5.3,5.3,0,0,1-3.739-1.1l-.122-.123a12.369,12.369,0,0,1-5.517-4.843q-1.471-2.759-.368-8.276a19.772,19.772,0,0,1,1.287-3.495,31.634,31.634,0,0,1,1.9-3.372,6.214,6.214,0,0,1,3.924-2.943,6.809,6.809,0,0,1,4.782.859,15.624,15.624,0,0,0,4.6,1.41,20.2,20.2,0,0,0,4.721.061q.981-.123,2.084-.245a18.923,18.923,0,0,1,2.085-.122,2.489,2.489,0,0,1,1.1,0q.49.122.49.981a1.48,1.48,0,0,1-1.226,1.716q-1.226.245-2.452.429a10.727,10.727,0,0,1-2.575.061h-1.9a7.813,7.813,0,0,0-1.9.246A12.888,12.888,0,0,1,1059.875,557.812Zm-5.64-19.678a14.572,14.572,0,0,1-5.149-2.329,8.664,8.664,0,0,1-2.452-3.556q-.368-.98,0-1.348t1.349-.123a47.714,47.714,0,0,0,4.781,1.41,47.971,47.971,0,0,1,4.781,1.41,6.874,6.874,0,0,1,3.678,3.31q.736,1.348.368,1.839t-2.085.368Q1056.933,538.746,1054.235,538.133Zm-3.126,25.441a.25.25,0,0,0,.184.061h.123a1.41,1.41,0,0,0,.306-.184,1.423,1.423,0,0,1,.307-.184,9.162,9.162,0,0,0,3.31-4.291,21.559,21.559,0,0,0,1.1-5.272,3.644,3.644,0,0,0-.981-2.7q-.981-1.349-1.716.122a32.358,32.358,0,0,0-2.82,12.383A.25.25,0,0,1,1051.109,563.574Z" transform="translate(-946.34 -507.596)"/><path class="a" d="M1112.239,598.364a12.148,12.148,0,0,1-1.288-1.532,1.5,1.5,0,0,1-.122-1.533,8.831,8.831,0,0,1,.858-1.287,25.989,25.989,0,0,1,2.636-2.943q1.411-1.348,2.76-2.7a16.033,16.033,0,0,0,1.348-1.471q1.227-1.226-.368-2.207a7.918,7.918,0,0,0-1.042-.429q-.552-.184-1.165-.429a8.448,8.448,0,0,1-4.292-2.575,23.828,23.828,0,0,1-2.82-4.046,4.574,4.574,0,0,1,0-4.781,21.741,21.741,0,0,1,12.016-10.544,4.956,4.956,0,0,1,3.249-.123,4.887,4.887,0,0,1,2.514,1.839,1.928,1.928,0,0,1,0,2.82q-1.1,1.348-2.268,2.636t-2.391,2.635q-1.348,1.472-2.574,3a25.165,25.165,0,0,0-2.207,3.249,3.079,3.079,0,0,0-.552,1.41q.061.306,1.165.92.981.612,1.9,1.164a6.753,6.753,0,0,1,1.655,1.41,1.674,1.674,0,0,0,1.042.614,1.813,1.813,0,0,0,1.042-.491q2.085-1.593,4.169-3.065a27.167,27.167,0,0,1,4.536-2.575,2.383,2.383,0,0,1,1.226-.49,1.021,1.021,0,0,1,1.471.613.407.407,0,0,1-.061.613,6.67,6.67,0,0,0-.552.49q-2.207,1.716-4.353,3.372t-4.352,3.371a3.371,3.371,0,0,0-1.165,1.287,2.488,2.488,0,0,0-.061,1.655,5.3,5.3,0,0,1,0,2.268,6.715,6.715,0,0,1-.859,2.023,12.193,12.193,0,0,1-9.2,6.375A2.233,2.233,0,0,1,1112.239,598.364Z" transform="translate(-990.672 -528.04)"/></g><g transform="translate(572.454 285)"><path class="a" d="M600.258,291.036l.434-.578q1.011-1.011,1.733.217a3.4,3.4,0,0,1,.361,1.661,19.694,19.694,0,0,1-.181,3.576q-.253,1.769-.542,3.5-.65,4.84-1.589,9.571t-1.589,9.571q-.361,2.528-.614,5.092t-.542,5.092q-.072.578-.108,1.156a6.41,6.41,0,0,1-.181,1.156,7.22,7.22,0,0,1-.217,1.083,1.1,1.1,0,0,1-.795.722,4.671,4.671,0,0,1-1.336.217,1.693,1.693,0,0,1-1.192-.578q-.144-.144-.361-.325t-.361-.325a4.069,4.069,0,0,1-1.589-4.118q.361-3.25.758-6.429t.975-6.429l.433-2.456q.217-1.228.506-2.456a1.068,1.068,0,0,1,.072-.4.582.582,0,0,0-.072-.469,1.122,1.122,0,0,0-.433.65,4.068,4.068,0,0,1-.217.722q-2.167,5.418-4.37,10.727t-4.514,10.727q-.506,1.155-1.011,2.2a14.037,14.037,0,0,1-1.228,2.059,3.3,3.3,0,0,1-4.767,1.228q-.65-.361-1.336-.722a5.224,5.224,0,0,1-1.264-.939,6.816,6.816,0,0,1-1.7-2.42,12.189,12.189,0,0,1-.759-2.781,16.019,16.019,0,0,1-.18-3.539q.108-1.733.325-3.467.434-3.684,1.156-7.26a63.28,63.28,0,0,1,1.878-7.115q1.445-4.262,3.251-8.271a41.1,41.1,0,0,1,4.55-7.693,15.676,15.676,0,0,1,1.878-2.1,18.946,18.946,0,0,1,2.167-1.733,7.066,7.066,0,0,1,3-1.228,10.28,10.28,0,0,1,3.323-.036,8.842,8.842,0,0,1,3.07,1.084,6.8,6.8,0,0,1,2.311,2.131l.361.361Q600.041,291.325,600.258,291.036Zm-19.792,42.184.578-.867a45.673,45.673,0,0,0,2.6-4.587q1.156-2.347,2.239-4.731,3.251-7.007,6.176-14.086t6.031-14.158a3.268,3.268,0,0,0,.325-1.734,3.517,3.517,0,0,0-.686-1.517,3.236,3.236,0,0,0-4.551-1.011,8.613,8.613,0,0,0-1.914,1.372,12.7,12.7,0,0,0-1.553,1.806,35.559,35.559,0,0,0-4.479,7.476q-1.733,3.937-3.106,8.126a51.068,51.068,0,0,0-1.409,5.49q-.542,2.745-.9,5.562T579.238,326a31.46,31.46,0,0,0,.072,5.634,6.254,6.254,0,0,0,.108,1.156q.108.578.181,1.228A2.79,2.79,0,0,0,580.465,333.221Z" transform="translate(-572.454 -286.982)"/><path class="a" d="M672.051,321.928q.541-.542,1.047-1.12a17.074,17.074,0,0,0,2.6-4.479,2.9,2.9,0,0,0,.108-.433c.024-.144.156-.193.4-.144q.795.144.867.722v.722a1.935,1.935,0,0,1-.145.722q-.65,1.734-1.445,3.431a13.99,13.99,0,0,1-2.022,3.142,4.261,4.261,0,0,1-1.372,1.228,3.952,3.952,0,0,1-1.481.542,2.024,2.024,0,0,1-1.481-.4,14.954,14.954,0,0,1-2.2-2.059,5.133,5.133,0,0,1-1.192-2.781,9.62,9.62,0,0,1,.289-3.251,11.4,11.4,0,0,0-1.409,1.842q-.542.9-1.048,1.77-.722,1.3-1.372,2.636t-1.373,2.636a2.589,2.589,0,0,1-.325.506,2.615,2.615,0,0,0-.325.506,1.772,1.772,0,0,1-2.6.433,4.2,4.2,0,0,1-1.914-2.2,5.2,5.2,0,0,1-.108-2.925q.433-2.528,1.047-5.093t1.336-5.092q.506-1.951.867-3.9t.795-3.9q.578-2.673,1.372-5.273t1.661-5.2a10.964,10.964,0,0,1,1.661-3.251,5.849,5.849,0,0,1,1.481-1.409,2.873,2.873,0,0,1,1.986-.4,3.007,3.007,0,0,1,1.95.939,5.122,5.122,0,0,1,1.084,1.95,4.521,4.521,0,0,1,.253,2.022q-.108,1.012-.253,2.022a20.572,20.572,0,0,1-1.553,5.851,34.832,34.832,0,0,1-2.853,5.273q-.65,1.011-1.3,2.059t-1.372,2.059q-.144.289-.325.614a2.361,2.361,0,0,0-.253.686,32.739,32.739,0,0,1-.469,3.431q-.325,1.7-.614,3.431a.694.694,0,0,0,.361-.325.963.963,0,0,1,.217-.325,41.285,41.285,0,0,1,2.817-4.117q1.517-1.951,3.178-3.9a1.2,1.2,0,0,1,1.373-.361,3.275,3.275,0,0,1,1.733,1.409,3.121,3.121,0,0,1,.361,2.2q-.289,1.661-.686,3.178a25.492,25.492,0,0,0-.614,3.178q-.072.506-.145,1.048a3.411,3.411,0,0,0,.072,1.192A7.843,7.843,0,0,0,672.051,321.928Zm-7.476-16.433a1.134,1.134,0,0,1,.217-.289,33.38,33.38,0,0,0,2.456-4.912,27.611,27.611,0,0,0,1.517-5.273l.289-1.445a4.021,4.021,0,0,0,0-1.517q-.289-1.3-1.228-.433A3.788,3.788,0,0,0,666.633,293a7.776,7.776,0,0,0-.614,1.733q-.65,2.745-1.084,5.454t-.794,5.454Q664.5,305.639,664.575,305.494Z" transform="translate(-627.382 -287.933)"/><path class="a" d="M717.741,330.574a9.005,9.005,0,0,1,.072-1.119q.073-2.023,1.661-1.878,2.167.217,1.95,2.239a2.25,2.25,0,0,1-.072.614q-.072.253-.144.542-.289,1.3-.578,2.564a7.639,7.639,0,0,0-.144,2.565q0,.939-.94.433a3.807,3.807,0,0,1-1.192-.9,2.3,2.3,0,0,1-.542-1.336q-.072-.722-.108-1.336t-.036-1.12Q717.741,331.116,717.741,330.574Zm.867-14.122a34.788,34.788,0,0,1,.795-3.756q1.083-3.684,2.275-7.332t2.636-7.332q.361-.867.722-1.7a8.59,8.59,0,0,1,.939-1.625.993.993,0,0,1,1.3-.433,2.751,2.751,0,0,1,1.3.975,2.446,2.446,0,0,1,.506,1.481,4.987,4.987,0,0,1-.072,1.481q-.144.686-.289,1.409-1.156,4.551-2.311,8.957t-2.312,8.957a20.1,20.1,0,0,1-1.156,3.251q-.722,1.589-1.3,3.25-.434,1.156-1.734.361a3.75,3.75,0,0,1-1.589-2.962v-1.228A24.7,24.7,0,0,1,718.608,316.452Z" transform="translate(-668.63 -291.089)"/><path class="a" d="M805.695,326.9q-.144,1.3-.289,2.528-.073.795-.109,1.481t-.108,1.408a3.4,3.4,0,0,1-.614,1.77,6.662,6.662,0,0,1-1.264,1.336,1.14,1.14,0,0,1-.83.361,2,2,0,0,1-.9-.216,8.347,8.347,0,0,1-2.853-2.528,6.613,6.613,0,0,1-1.12-3.612,20.245,20.245,0,0,1,.181-3.648q.253-1.77.542-3.576a2.775,2.775,0,0,0-.036-1.011,1.919,1.919,0,0,0-.542-.867,4.507,4.507,0,0,1-1.011-1.264q-.362-.686-.722-1.409a1.555,1.555,0,0,1-.217-1.011,1.131,1.131,0,0,1,.542-.722.755.755,0,0,1,.831.072,3.231,3.231,0,0,1,.939.722q.867.939,1.156-.361.506-2.095.975-4.19t.9-4.189q.578-2.817,1.409-5.562t1.625-5.49a13.968,13.968,0,0,1,.361-1.517q.217-.722.433-1.589a23.338,23.338,0,0,0-2.275,1.517q-1.047.794-2.059,1.661a32.585,32.585,0,0,0-3.431,3.865,16.388,16.388,0,0,0-2.42,4.587.562.562,0,0,1-.578.361,1.275,1.275,0,0,1-.939-.65,4.729,4.729,0,0,1-.722-4.189,16.77,16.77,0,0,1,3.612-6.357,31.466,31.466,0,0,1,8.09-6.248A29.918,29.918,0,0,1,814,285.226a19.227,19.227,0,0,1,4.7-.145,22.5,22.5,0,0,1,4.623.939,12.671,12.671,0,0,1,7.3,5.778,17.825,17.825,0,0,1,2.6,8.163,16.1,16.1,0,0,1-1.878,8.235,26.664,26.664,0,0,1-16.831,14.23,12.326,12.326,0,0,1-2.023.506q-.072.434.216.578a1.931,1.931,0,0,1,.506.361q1.806,1.589,3.395,3.25a36.562,36.562,0,0,0,3.467,3.178q1.445,1.228,2.853,2.348a23.552,23.552,0,0,0,3.07,2.059q.361.217.794.469a.763.763,0,0,1,.361.831,2.023,2.023,0,0,1-1.445,1.878,8.371,8.371,0,0,1-2.925.614,7.825,7.825,0,0,1-3-.542,20.186,20.186,0,0,1-8.74-7.007q-1.228-1.661-2.492-3.25a25.272,25.272,0,0,1-2.276-3.4h-.289Zm1.553-32.288a4.216,4.216,0,0,1,.686,1.806q.073.434.108.9t.036.9a25.538,25.538,0,0,1,0,2.709q-.073,1.336-.217,2.781-.217,3.034-.469,6.068t-.542,6.067a2.373,2.373,0,0,0-.072.578.964.964,0,0,0,.216.578,18.939,18.939,0,0,0,5.706-1.517,30.623,30.623,0,0,0,8.235-4.912A26.365,26.365,0,0,0,827,303.14a14.425,14.425,0,0,0,1.95-7.44,4.927,4.927,0,0,0-3.54-4.912q-.506-.217-.939-.361a18.779,18.779,0,0,0-5.129-.867,21.186,21.186,0,0,0-5.2.506,28.087,28.087,0,0,0-8.74,3.395A3.141,3.141,0,0,1,807.248,294.616Z" transform="translate(-718.084 -285)"/><path class="a" d="M918.678,345.791a11.868,11.868,0,0,1-1.228,4.081,5.041,5.041,0,0,1-1.733,1.95,4.624,4.624,0,0,1-2.059.867,3.122,3.122,0,0,1-2.2-.65l-.072-.072a7.291,7.291,0,0,1-3.251-2.853q-.867-1.626-.216-4.876a11.628,11.628,0,0,1,.758-2.059,18.556,18.556,0,0,1,1.119-1.987,3.662,3.662,0,0,1,2.312-1.733,4.012,4.012,0,0,1,2.817.506,9.193,9.193,0,0,0,2.709.831,11.9,11.9,0,0,0,2.781.036q.578-.072,1.228-.145a11.108,11.108,0,0,1,1.229-.072,1.482,1.482,0,0,1,.65,0q.289.072.289.578a.872.872,0,0,1-.723,1.011q-.722.144-1.445.253a6.339,6.339,0,0,1-1.517.036H919a4.6,4.6,0,0,0-1.12.145A7.6,7.6,0,0,1,918.678,345.791Zm-6.718-12.1a1.621,1.621,0,0,1-.253-.758q.037-.18.542-.542l.289-.145.289-.145a13.855,13.855,0,0,0,1.7-.542q.83-.325,1.625-.686a1.994,1.994,0,0,1,1.662,0,2.29,2.29,0,0,1,1.084,1.228.635.635,0,0,1-.289.867,11.419,11.419,0,0,1-4.623,1.661A1.861,1.861,0,0,1,911.96,333.692Zm1.553,15.494a.147.147,0,0,0,.108.036h.072a.853.853,0,0,0,.181-.108.843.843,0,0,1,.18-.108,5.4,5.4,0,0,0,1.95-2.528,12.71,12.71,0,0,0,.65-3.106,2.147,2.147,0,0,0-.578-1.589q-.578-.795-1.011.072a19.058,19.058,0,0,0-1.662,7.3A.148.148,0,0,1,913.513,349.186Z" transform="translate(-794.446 -315.263)"/><path class="a" d="M966.479,298.581a30.762,30.762,0,0,1-1.083,3.5,46.918,46.918,0,0,1-3.467,7.368,66.842,66.842,0,0,1-4.55,6.79,7.7,7.7,0,0,1-.434.65,2,2,0,0,1-.578.506,2,2,0,0,0-.758,1.047,7.321,7.321,0,0,0-.253,1.264,18.349,18.349,0,0,0-.144,2.275v2.275a.5.5,0,0,0,.036.217.507.507,0,0,1,.036.216q.145,1.228.578,1.481t1.589-.181a9.748,9.748,0,0,0,2.89-1.553,12.283,12.283,0,0,0,2.239-2.347q.722-1.012,1.372-2.059a11.679,11.679,0,0,0,1.084-2.275,3.213,3.213,0,0,1,.289-.578q.144-.216.65-.072a.827.827,0,0,1,.505,1.156,8.533,8.533,0,0,0-.361,1.011,6.337,6.337,0,0,1-.434,1.083q-.578,1.3-1.264,2.564t-1.481,2.492a6.127,6.127,0,0,1-3.251,2.817,7.553,7.553,0,0,1-3.973.361,4.4,4.4,0,0,1-2.095-.939q-.867-.722-1.734-1.517a5.812,5.812,0,0,1-1.806-2.781,17.6,17.6,0,0,1-.578-3.215,13.745,13.745,0,0,1,.216-3.178q.289-1.517.65-3.034,1.011-3.829,2.167-7.476a71.991,71.991,0,0,1,2.745-7.26q.794-1.806,1.733-3.539a21.222,21.222,0,0,1,2.167-3.25q.361-.434.723-.795l.722-.722a3.323,3.323,0,0,1,2.456-1.264,4.384,4.384,0,0,1,2.745,1.553,4.77,4.77,0,0,1,1.228,3.756A22.545,22.545,0,0,1,966.479,298.581Zm-2.455-5.96a4.719,4.719,0,0,0-.433.506,13.911,13.911,0,0,0-1.589,2.42q-.651,1.264-1.228,2.636a40.5,40.5,0,0,0-2.275,6.537q-.831,3.287-1.625,6.754-.144.577-.325,1.228a4.839,4.839,0,0,0-.181,1.3l.289-.145a2.574,2.574,0,0,1,.325-.4,2.585,2.585,0,0,0,.325-.4,41,41,0,0,0,4.117-7.043,50.226,50.226,0,0,0,2.745-7.621,15.322,15.322,0,0,0,.578-3,14.465,14.465,0,0,0-.072-3.214A2.52,2.52,0,0,0,964.024,292.621Z" transform="translate(-822.166 -288.062)"/><path class="a" d="M999.282,346.209a2.81,2.81,0,0,0,.4,1.3q.253.289,1.409-.072a11.1,11.1,0,0,0,2.6-1.048,9.187,9.187,0,0,0,2.239-1.77q.433-.505.831-.975a6.942,6.942,0,0,0,.758-1.119q.361-.722,1.011-.434.434.217.4.506a2.683,2.683,0,0,1-.181.65,18.286,18.286,0,0,1-1.914,3.25,10.64,10.64,0,0,1-2.781,2.6,4.985,4.985,0,0,1-3,.867,6.778,6.778,0,0,1-3.07-.939,4.6,4.6,0,0,1-.687-.506,4.564,4.564,0,0,0-.686-.506,5.13,5.13,0,0,1-2.167-3.937,6.1,6.1,0,0,1,1.156-3.937,14.236,14.236,0,0,1,1.409-1.733,8.481,8.481,0,0,1,1.7-1.372,4,4,0,0,1,5.128.722,2.046,2.046,0,0,1,.433,2.094,15.092,15.092,0,0,1-1.011,2.275,6.547,6.547,0,0,1-1.517,1.842,2.724,2.724,0,0,1-2.456.795A7.223,7.223,0,0,0,999.282,346.209Zm1.156-13.689a8.424,8.424,0,0,1-.722.831q-.867.867-1.445.289a1.106,1.106,0,0,1-.289-1.734q.794-.867,1.517-1.733t1.517-1.661a.782.782,0,0,1,1.083-.144,3.7,3.7,0,0,1,1.083,1.3,7.348,7.348,0,0,1,.722,1.951l.434,2.023q.217.867-.795.722a1.4,1.4,0,0,1-1.011-.65,9.761,9.761,0,0,0-.578-.9,2.79,2.79,0,0,1-.434-.975.488.488,0,0,0-.361-.145A8.589,8.589,0,0,0,1000.438,332.52Zm.939,9.21a4.865,4.865,0,0,0,.578-2.673,16.588,16.588,0,0,0-1.553,2.131,5.978,5.978,0,0,0-.83,2.564A6.518,6.518,0,0,0,1001.377,341.73Z" transform="translate(-851.935 -313.622)"/><path class="a" d="M1022.36,339.779q.289-1.625.65-3.286,1.011-4.117,1.95-8.162t1.951-8.162q.433-1.662.831-3.395t.831-3.395a1.636,1.636,0,0,0,.036-.9q-.108-.181-.9-.036-1.011.073-2.058.181a12.554,12.554,0,0,1-2.131.036,2.606,2.606,0,0,1-1.661-.686,2.28,2.28,0,0,1-.505-1.986c.048-.145.1-.277.144-.4s.193-.156.433-.108a2.547,2.547,0,0,0,1.264.108q.615-.108,1.192-.253,1.011-.144,2.059-.289t2.131-.289a1.482,1.482,0,0,0,1.516-1.372,7.015,7.015,0,0,0,.253-.759,6.882,6.882,0,0,1,.253-.758q.288-.65.939-.217a1.176,1.176,0,0,1,.506.578l.289.722A3.361,3.361,0,0,0,1032.8,308q.181.18,1.048.036,2.455-.289,4.875-.506t4.948-.289a11.126,11.126,0,0,1,1.228.072q.65.072,1.228.145a1.723,1.723,0,0,1,1.589,1.011,2.717,2.717,0,0,1,.289,1.661.793.793,0,0,1-.65.722,4.44,4.44,0,0,0-.614.036,4.462,4.462,0,0,1-.614.036q-3.251.073-6.537.325t-6.537.614a.925.925,0,0,0-.94.939q-.939,5.562-1.769,11.016t-1.77,11.015q-.433,2.745-.867,5.526a43.575,43.575,0,0,0-.506,5.6,7.637,7.637,0,0,0,0,2.095,1.365,1.365,0,0,1-.506,1.372,1.519,1.519,0,0,1-1.444,0,4.869,4.869,0,0,1-3.034-4.334v-2.022A12.5,12.5,0,0,1,1022.36,339.779Z" transform="translate(-869.74 -298.561)"/><path class="a" d="M1054.2,358.687q.253-.361.47-.722a40.379,40.379,0,0,0,2.564-3.467,41.615,41.615,0,0,0,2.2-3.756,4.652,4.652,0,0,1,.289-.506,3.232,3.232,0,0,1,.759-1.083,1.184,1.184,0,0,1,.831,0,2.2,2.2,0,0,1,2.095,2.022,9.18,9.18,0,0,1-.072,2.6,12.075,12.075,0,0,0,.072,5.418q.144.506.253.542c.073.024.229-.036.47-.181a3.694,3.694,0,0,0,.975-.686q.4-.4.759-.831a19.073,19.073,0,0,0,1.408-1.878,19.438,19.438,0,0,0,1.12-1.95q.072-.217.144-.4a2.226,2.226,0,0,1,.216-.4.629.629,0,0,1,.939-.145.546.546,0,0,1,.361.795q-.578,1.733-1.3,3.395a20.273,20.273,0,0,1-1.734,3.178,3.917,3.917,0,0,1-2.745,1.878,2.816,2.816,0,0,1-2.167-.506,12.025,12.025,0,0,1-2.384-1.95,4.457,4.457,0,0,1-1.156-2.745q-.361-.072-.434.108t-.144.325q-.794,1.228-1.481,2.528a22.991,22.991,0,0,1-1.553,2.528,2.887,2.887,0,0,1-2.311,1.3,2.724,2.724,0,0,1-1.084-.217,5.389,5.389,0,0,1-3.034-5.562,17.968,17.968,0,0,1,.434-2.275,18.187,18.187,0,0,1,.722-2.2q.867-1.878,1.878-3.612a14.4,14.4,0,0,1,2.528-3.178,4.827,4.827,0,0,1,6.429-.361l.325.325.325.325.145.289a.359.359,0,0,1-.072.361.839.839,0,0,1-.578.145.293.293,0,0,0-.217-.072,1.565,1.565,0,0,1-.361-.325.484.484,0,0,0-.505-.108,2.1,2.1,0,0,0-.795.722,4.793,4.793,0,0,0-1.372,1.661q-1.229,2.094-2.276,4.226a22.3,22.3,0,0,0-1.625,4.442,1,1,0,0,0-.072.434l.072.072A1.326,1.326,0,0,0,1054.2,358.687Z" transform="translate(-887.753 -325.162)"/><path class="a" d="M1157.161,322.221q-.4.867-.831,1.661a12.438,12.438,0,0,1-1.95,3.106,3.161,3.161,0,0,1-4.768.65q-.506-.361-1.011-.686a4.324,4.324,0,0,1-.939-.831,5.234,5.234,0,0,1-1.264-2.492,7.214,7.214,0,0,1,.036-2.781,22.688,22.688,0,0,1,1.048-3.793,28.042,28.042,0,0,1,1.625-3.575q1.516-2.817,3.792-3.178a7.8,7.8,0,0,1,4.514.65q.29.144.542.289t.542.289a.551.551,0,0,0,.4-.434,1.78,1.78,0,0,1,.181-.578q1.733-5.129,3.5-10.185t3.214-10.257a2.294,2.294,0,0,1,.145-.65,4.976,4.976,0,0,1,.289-.614q.145-.253.578-.181a3.169,3.169,0,0,1,.831.217,1.162,1.162,0,0,1,.542.65,9.327,9.327,0,0,1,.361,4.767q-.651,4.334-1.553,8.524t-1.842,8.452q-.866,4.334-1.661,8.632a86.828,86.828,0,0,0-1.155,8.7q-.145,1.083-.253,2.167a9.954,9.954,0,0,1-.469,2.167q-.289,1.445-1.806.939a3.5,3.5,0,0,1-2.023-1.553,5.686,5.686,0,0,1-.65-2.492,12.549,12.549,0,0,1,.072-2.348q.145-1.119.289-2.348.144-1.155.325-2.239t.4-2.239c-.048-.048-.084-.072-.108-.072s-.06-.024-.108-.072Q1157.559,321.354,1157.161,322.221Zm-4.948,2.564q.217-.253.433-.47a9.825,9.825,0,0,0,1.12-1.7q.47-.9.975-1.77a33.4,33.4,0,0,0,1.662-3.359q.722-1.7,1.445-3.431.433-1.012-.578-1.228-.361-.144-.542.036l-.325.325a14.417,14.417,0,0,0-1.625,2.095,21.129,21.129,0,0,0-1.264,2.312,24.936,24.936,0,0,0-2.022,7.657A1.972,1.972,0,0,0,1152.213,324.785Z" transform="translate(-952.5 -287.395)"/><path class="a" d="M1211.1,362.7a10.726,10.726,0,0,0,1.12-1.228q1.445-1.806,2.709-3.684a14.448,14.448,0,0,0,1.914-4.189,9.55,9.55,0,0,1,1.517-3.251,7.923,7.923,0,0,1,.578-.65,1.177,1.177,0,0,1,.867-.289q1.589,0,1.661,1.806a14.938,14.938,0,0,1-.072,2.528q-.144,1.3-.289,2.528-.216,1.445-.361,2.889a14.483,14.483,0,0,0,0,2.889,1.363,1.363,0,0,1,.073.434c0,.144.1.241.289.289q.361.073.65-.361.578-.65,1.084-1.264t1.011-1.264a4.148,4.148,0,0,1,.722-.795.785.785,0,0,1,1.083,0q.361.217.253.469a2.9,2.9,0,0,1-.253.47q-.433,1.011-.975,2.023a6.771,6.771,0,0,1-1.408,1.806,3.934,3.934,0,0,1-4.045.867,9.742,9.742,0,0,1-2.239-1.12,3.557,3.557,0,0,1-1.373-2.275q-.433.578-.758,1.047t-.687.975a7.193,7.193,0,0,1-3.828,2.6,2.455,2.455,0,0,1-1.228.217,3.988,3.988,0,0,1-1.662-.4,7.6,7.6,0,0,1-1.625-1.011,8.735,8.735,0,0,1-1.337-1.336,4.323,4.323,0,0,1-.795-1.445,6.957,6.957,0,0,1-.181-1.842,16.514,16.514,0,0,1,.181-1.842q.217-1.445.542-2.889a16.707,16.707,0,0,1,.9-2.817.207.207,0,0,1,.072-.144q.867-2.24,2.889-1.589a2.4,2.4,0,0,1,1.95,3.034l-.867,7.585a4.925,4.925,0,0,0,.361,2.095A3.889,3.889,0,0,0,1211.1,362.7Z" transform="translate(-990.404 -327.659)"/><path class="a" d="M1263.522,367.94a7.116,7.116,0,0,1-.758-.9.886.886,0,0,1-.072-.9,5.165,5.165,0,0,1,.506-.758,15.286,15.286,0,0,1,1.553-1.734q.831-.795,1.625-1.589a9.447,9.447,0,0,0,.795-.866q.722-.723-.217-1.3a4.621,4.621,0,0,0-.614-.253q-.325-.108-.686-.253a4.982,4.982,0,0,1-2.529-1.517,14.054,14.054,0,0,1-1.661-2.384,2.7,2.7,0,0,1,0-2.817,12.809,12.809,0,0,1,7.079-6.212,2.919,2.919,0,0,1,1.914-.072,2.88,2.88,0,0,1,1.481,1.084,1.135,1.135,0,0,1,0,1.661q-.65.795-1.336,1.553t-1.409,1.553q-.794.867-1.517,1.77a14.827,14.827,0,0,0-1.3,1.914,1.816,1.816,0,0,0-.325.83q.037.181.686.542.578.361,1.12.686a3.972,3.972,0,0,1,.975.831.986.986,0,0,0,.614.361,1.071,1.071,0,0,0,.614-.289q1.228-.939,2.456-1.806a16.033,16.033,0,0,1,2.673-1.517,1.4,1.4,0,0,1,.722-.289.6.6,0,0,1,.867.361.24.24,0,0,1-.036.361,3.861,3.861,0,0,0-.325.289q-1.3,1.012-2.564,1.986t-2.565,1.987a1.986,1.986,0,0,0-.686.759,1.465,1.465,0,0,0-.036.975,3.117,3.117,0,0,1,0,1.336,3.958,3.958,0,0,1-.506,1.192,7.184,7.184,0,0,1-5.417,3.756A1.317,1.317,0,0,1,1263.522,367.94Z" transform="translate(-1028.523 -325.566)"/></g></g></svg>