<svg xmlns="http://www.w3.org/2000/svg" xmlns:xlink="http://www.w3.org/1999/xlink" width="148" height="121.134" viewBox="0 0 148 121.134"><defs><style>.a,.s{fill:none;}.b{fill:#08a5a5;}.c{fill:#d9d9e8;}.d{clip-path:url(#a);}.e{fill:#211042;}.f{fill:#10ced5;}.g{clip-path:url(#c);}.h{opacity:0.29;}.h,.n{mix-blend-mode:multiply;isolation:isolate;}.i{clip-path:url(#d);}.j{fill:#826e4f;}.k{clip-path:url(#f);}.l{fill:#648fb1;}.m{clip-path:url(#h);}.n{opacity:0.19;}.o{clip-path:url(#i);}.p{fill:#674863;}.q{clip-path:url(#k);}.r{clip-path:url(#m);}.s{stroke:#d9d9e8;stroke-miterlimit:10;}</style><clipPath id="a"><rect class="a" width="45.585" height="102.47"/></clipPath><clipPath id="c"><path class="a" d="M1779.755,106.79c-2.868,1.24-1.654,10.174.8,11.247,0,0,1.53,5.206.191,6.395,0,0,3.454,2.691,5.214,2.02s1.729-.948,1.729-.948a13.643,13.643,0,0,1-1.981-2.185c-.389-.732-1.663-3.575-.943-4.878,0,0,2.2,1.577,3.451-.14,1.634-2.237-1.409-9.3-2.45-9.932-.817-.5-2.289-1.952-4.273-1.952a4.328,4.328,0,0,0-1.734.374" transform="translate(-1778.09 -106.416)"/></clipPath><clipPath id="d"><rect class="a" width="2.631" height="2.583"/></clipPath><clipPath id="f"><rect class="a" width="85.493" height="94.401"/></clipPath><clipPath id="h"><path class="b" d="M1523.12,161.056s-1.973,29.4,11.049,37.686a60.831,60.831,0,0,0,20.125-19.929l3.946-1.578s4.341.4-.986-2.171l-2.96,1.776.987-2.96s-2.96,2.171-2.369,4.143a24.435,24.435,0,0,1-6.116,4.736c-4.341,2.565-10.063,5.327-11.642,10.063,0,0-1.184-27.821-3.946-32.359-1.123-1.844-2.474-2.548-3.761-2.548a5.1,5.1,0,0,0-4.328,3.14" transform="translate(-1523.013 -157.916)"/></clipPath><clipPath id="i"><rect class="a" width="15.566" height="20.915"/></clipPath><clipPath id="k"><path class="a" d="M1435.015,177.436l-30.583,38.278-1.735.248a3.929,3.929,0,0,1-2.4-.381,1.623,1.623,0,0,0-.768-.19c-.419,0-.815.915-.52,1.211l1.578,1.381,2.959-.395-1.578,2.171a6.822,6.822,0,0,0,2.861-2.861c15.193-5.327,18.547-16.772,18.547-16.772,28.61-12.43,23.085-24.86,20.52-26.833s-1.578-3.354-1.578-3.354l-7.7-2.565Z" transform="translate(-1398.903 -167.373)"/></clipPath><clipPath id="m"><path class="a" d="M1529.121,103.243c-1.282-.493-3.325-1.1-7.6,2.861-2.762,2.565-5.229,9.372-6.807,10.161s-.592,4.143,1.578,4.538a8.549,8.549,0,0,0,2.424-.034c1.44-.156,2.809-.313,3.693.823,1.381,1.776,4.143,1.184,4.143,1.184s2.565.2,3.157-1.973.2-7.1,2.762-9.274a6.2,6.2,0,0,1,3.354-4.538s-3.552-.987-1.578-3.946l-1.776-1.579s-1.025,2.672-3.354,1.776" transform="translate(-1513.943 -101.467)"/></clipPath></defs><g transform="translate(-1373.859 -28.996)"><path class="c" d="M2239.446,407.9c-2.874,10.672-148.171,9.771-148,0,2.873-10.673,148.172-9.772,148,0" transform="translate(-717.588 -265.435)"/><g transform="translate(1465.401 28.996)"><g class="d" transform="translate(0 0)"><g class="d"><path class="c" d="M1728.628,89.755l-2.406-1.82L1715.97,77.776s-4.162-10.648-3.872-16.237l-1.468.552s-1.2,12.587,2.226,17.536c0,0,6.929,11.05,14.188,15.161s1.583-5.033,1.583-5.033" transform="translate(-1709.455 -54.305)"/><path class="c" d="M1706.814,57.842s2.751-1.2,3.128.524-1.925,2.228-2.051,1.652a5.544,5.544,0,0,0-1.077-2.176" transform="translate(-1706.814 -51.306)"/><path class="c" d="M1826.92,72.568l1.657-2.521,6.259-13s.356-11.427-1.788-16.6l1.567.029s5.342,11.46,3.774,17.269c0,0-2.829,12.732-8.292,19.037s-3.176-4.212-3.176-4.212" transform="translate(-1794.212 -38.895)"/><path class="c" d="M1851.778,34.7s-3-.212-2.771,1.54,2.56,1.455,2.485.87a5.549,5.549,0,0,1,.286-2.411" transform="translate(-1810.686 -34.688)"/><path class="e" d="M1809.62,356.064s-.737-1.285-1.64-.538c-.256.211-.672,5.664.276,5.854s1.354-4.935,1.364-5.316" transform="translate(-1780.492 -268.91)"/><path class="c" d="M1814.474,361.018l-3.047-2.656a1,1,0,0,0-1.39,1.436l3.333,3.578Z" transform="translate(-1782.029 -270.972)"/><path class="b" d="M1826.244,374.592l-8.094-8s2.389-4.133,4.708-3.668,3.257,9.725,3.386,11.671" transform="translate(-1788.152 -274.456)"/><path class="b" d="M1819.59,290.316s9.64,26.816,8.07,30.049-7.095,1.771-8.923-.44-8.668-25.434-8.668-25.434,5.057-6.541,9.521-4.175" transform="translate(-1782.248 -221.063)"/><path class="e" d="M1719.476,336.62s.259-1.459-.913-1.466c-.331,0-4.151,3.912-3.547,4.666s4.208-2.914,4.46-3.2" transform="translate(-1712.759 -254.197)"/><path class="c" d="M1727.188,343.611l-.629-3.993a1,1,0,0,0-1.988.209l.256,4.882Z" transform="translate(-1719.785 -256.841)"/><path class="b" d="M1723.419,366.355l-1.067-11.332s4.485-1.635,5.965.21-3.747,9.547-4.9,11.121" transform="translate(-1718.165 -268.225)"/><path class="b" d="M1744.454,300.449s-9.827,26.747-13.107,28.218-6.576-3.2-6.558-6.066,9.686-25.065,9.686-25.065,8.077-1.768,9.979,2.912" transform="translate(-1719.946 -226.476)"/><path class="b" d="M1777.276,308.549s4.353-8.552,11.308-.432l-2.739-13.248-7.866,1.146-3.076,10.636Z" transform="translate(-1756.557 -224.766)"/><path class="f" d="M1767.617,155.677a7.919,7.919,0,0,1-6.944-1.107l-6.028-6.032-3.959,7.365s9.527,13.236,1.573,33.282c0,0,9.786,6.572,15.9,2.263s8.216-4.226,8.216-4.226-6.919-23.018,1.147-34.6l-4.541-4.954s-3.686,7.066-5.365,8.007" transform="translate(-1738.865 -117.229)"/><path class="c" d="M1787.685,125.5a13.652,13.652,0,0,1-1.981-2.185c-.389-.732-1.662-3.575-.943-4.878,0,0,2.2,1.577,3.452-.14,1.633-2.237-1.41-9.3-2.45-9.933s-3.14-2.817-6.008-1.578-1.653,10.174.8,11.247c0,0,1.531,5.206.192,6.395,0,0,3.454,2.691,5.213,2.021s1.729-.949,1.729-.949" transform="translate(-1758.885 -87.09)"/></g><g transform="translate(19.204 19.326)"><g class="g"><g class="h" transform="translate(4.678 10.483)"><g class="i"><path class="j" d="M1797.834,147.6l-.389-.733a5.945,5.945,0,0,1-1.993-1.541s.885,2.11,2.013,2.464.369-.189.369-.189" transform="translate(-1795.452 -145.323)"/></g></g></g></g><g class="d"><path class="e" d="M1780.945,101.254s2.154-.645,1.808-1.948-2.445-.662-2.445-.662,3.054-1.588,1.8-2.789-4.791.255-4.791.255.925-1.475-.086-2.266-5.433,1.978-5.228,4.449c0,0-3.932.315-1.72,5.055s4.125,5.431,4.125,5.431a4.172,4.172,0,0,0,.458-2.981.743.743,0,0,1-1.065.057c-.564-.5-1.117-1.683-.824-2.122s2.074.735,2.074.735,1.293-1.548.7-2.572.3-1.125.3-1.125,3.057.943,4.245-.518a3.3,3.3,0,0,1,.641,1" transform="translate(-1752.693 -77.805)"/></g></g></g><g transform="translate(1373.859 46.191)"><g class="k" transform="translate(0)"><g class="k"><path class="e" d="M1608.066,84.1s-1.184-1.579-3.749.395-8.287,2.762-9.076,0,2.762-8.09,6.511-6.709,7.3,3.157,6.314,6.314" transform="translate(-1534.164 -63.672)"/><path class="l" d="M1523.12,161.056s-1.973,29.4,11.05,37.686a60.825,60.825,0,0,0,20.125-19.929l3.947-1.578s4.341.395-.987-2.17l-2.96,1.775.987-2.96s-2.96,2.171-2.368,4.144a24.438,24.438,0,0,1-6.117,4.735c-4.341,2.565-10.063,5.328-11.642,10.063,0,0-1.183-27.821-3.946-32.359s-6.906-2.171-8.09.592" transform="translate(-1481.478 -122.373)"/></g><g transform="translate(41.535 35.543)"><path class="b" d="M1523.12,161.056s-1.973,29.4,11.049,37.686a60.831,60.831,0,0,0,20.125-19.929l3.946-1.578s4.341.4-.986-2.171l-2.96,1.776.987-2.96s-2.96,2.171-2.369,4.143a24.435,24.435,0,0,1-6.116,4.736c-4.341,2.565-10.063,5.327-11.642,10.063,0,0-1.184-27.821-3.946-32.359-1.123-1.844-2.474-2.548-3.761-2.548a5.1,5.1,0,0,0-4.328,3.14" transform="translate(-1523.013 -157.916)"/><g class="m"><path class="e" d="M1590.662,219.493c-.394,0-9.865-2.17-5.525-10.26s30.188-19.336,25.058-9.471-19.533,19.731-19.533,19.731" transform="translate(-1567.569 -185.671)"/><g class="n" transform="translate(-1.746 9.75)"><g class="o"><path class="p" d="M1532.1,203.968s-6.906,11.05-12.036,11.05-3.158-15.983-3.158-15.983l8.879-4.933Z" transform="translate(-1516.532 -194.102)"/></g></g></g></g><g class="k"><path class="c" d="M1574.645,88.464l2.565-.2,12.036-2.565s7.893-5.722,10.26-9.865l.8,1.072s-4.942,9.583-9.677,11.556c0,0-10.064,4.736-17.166,4.341s1.184-4.341,1.184-4.341" transform="translate(-1516.231 -62.409)"/><path class="c" d="M1575.182,30.454l-1.42-.71s-14.1,6.7-16.668,21.693h3.552s1.12-12.5,14.536-20.983" transform="translate(-1506.376 -28.735)"/><path class="b" d="M1442.315,169.939s-.987,1.381,1.578,3.354,8.09,14.4-20.52,26.834c0,0-3.354,11.444-18.547,16.771a6.823,6.823,0,0,1-2.861,2.861l1.579-2.17-2.96.394-1.578-1.381c-.3-.3.1-1.212.52-1.211a1.626,1.626,0,0,1,.768.19,3.919,3.919,0,0,0,2.4.381l1.736-.248,30.583-38.278-.4-10.063Z" transform="translate(-1390.807 -129.282)"/></g><g transform="translate(8.095 38.091)"><g class="q"><path class="e" d="M1400.536,289.259c.174-.406-8.287,0-8.09-6.117s-29.6,8.485-22.493,15.785,18.744,17.956,30.583-9.668" transform="translate(-1376.954 -250.882)"/></g></g><g class="k"><path class="f" d="M1532.476,101.467s-1.025,2.672-3.354,1.776c-1.283-.493-3.326-1.1-7.6,2.861-2.763,2.565-5.229,9.372-6.807,10.162s-.592,4.143,1.578,4.538,4.736-.986,6.117.789,4.143,1.184,4.143,1.184,2.565.2,3.157-1.973.2-7.1,2.763-9.274a6.2,6.2,0,0,1,3.354-4.538s-3.552-.986-1.578-3.946Z" transform="translate(-1474.852 -81.133)"/></g><g transform="translate(39.091 20.334)"><g class="r"><path class="c" d="M1568.577,100.627s-4.341,5.919-7.5,2.762,3.749-5.919,3.749-5.919l2.959-2.96,2.565,1.184s.987,4.144-1.776,4.933" transform="translate(-1547.775 -96.384)"/><path class="s" d="M1484.685,116.5" transform="translate(-1492.568 -112.447)"/></g></g><g class="k"><path class="c" d="M1590.662,71.834s-3.157,5.722-6.709,5.919-3.157-6.906,0-9.866,7.3-.592,6.709,3.946" transform="translate(-1524.159 -55.644)"/><path class="e" d="M1589.379,61.352c.195-.032,2.762,5.328,6.314,4.736s6.117,2.762,5.13,4.736c0,0,6.552-1.295,5.919-7.1-.735-6.759-5.091-6.575-8.879-4.143-2.184,1.4-12.825-5.92-11.444,4.143a3.691,3.691,0,0,1,2.96-2.368" transform="translate(-1527.71 -49.404)"/><path class="c" d="M1581.609,76.436a.973.973,0,0,0,.581,1.21c.428.078.864-.336.972-.926a.973.973,0,0,0-.581-1.209c-.429-.079-.864.335-.972.925" transform="translate(-1524.268 -62.164)"/><path class="c" d="M1606.3,94.779c-.537.265-.816.8-.623,1.188a.974.974,0,0,0,1.323.227c.537-.266.817-.8.623-1.188a.974.974,0,0,0-1.323-.227" transform="translate(-1541.824 -76.139)"/><path class="e" d="M1596.8,66.678a6.855,6.855,0,0,0,.09,2.193,5.934,5.934,0,0,0,.8,2.066,5.568,5.568,0,0,0,.711.858c.066.065.138.124.206.186a2.11,2.11,0,0,0,.214.175c.075.056.144.115.219.169l.229.154c.15.106.315.189.472.283.165.078.324.171.5.236s.339.141.515.2a4.8,4.8,0,0,0,.53.155,6.371,6.371,0,0,0,1.091.183c.368.034.725.051,1.089.07l2.168.11a17.793,17.793,0,0,1,2.136.164,1.9,1.9,0,0,1,.929.392,7.461,7.461,0,0,1,.706.806l.032-.022c-.087-.16-.178-.317-.272-.474-.046-.079-.1-.155-.15-.233s-.116-.148-.177-.221a2.07,2.07,0,0,0-1-.551,12.091,12.091,0,0,0-2.184-.281c-.726-.043-1.452-.05-2.178-.061a16.333,16.333,0,0,1-2.149-.094,4.553,4.553,0,0,1-1.984-.765,4.728,4.728,0,0,1-1.37-1.606,9.819,9.819,0,0,1-1.132-4.087Z" transform="translate(-1535.344 -55.718)"/><path class="c" d="M1678.364,74.8s-1.42-2.13-2.485-1.065.354,2.485.709,2.13a4.732,4.732,0,0,1,1.775-1.065" transform="translate(-1592.871 -60.656)"/><path class="c" d="M1620.386,27.363s-1.42-2.13-2.485-1.065.355,2.485.71,2.13a4.73,4.73,0,0,1,1.775-1.065" transform="translate(-1550.514 -26)"/></g></g></g></g></svg>