<svg xmlns="http://www.w3.org/2000/svg" xmlns:xlink="http://www.w3.org/1999/xlink" width="333" height="83" viewBox="0 0 333 83"><defs><style>.a{fill:#14bec4;}.b{fill:#14bfc5;}.c{filter:url(#c);}.d{filter:url(#a);}</style><filter id="a" x="6" y="6" width="327" height="77" filterUnits="userSpaceOnUse"><feOffset dx="3" dy="3" input="SourceAlpha"/><feGaussianBlur stdDeviation="4.5" result="b"/><feFlood flood-color="#474747" flood-opacity="0.49"/><feComposite operator="in" in2="b"/><feComposite in="SourceGraphic"/></filter><filter id="c" x="0" y="0" width="327" height="77" filterUnits="userSpaceOnUse"><feOffset dx="-3" dy="-3" input="SourceAlpha"/><feGaussianBlur stdDeviation="4.5" result="d"/><feFlood flood-color="#22d6dc"/><feComposite operator="in" in2="d"/><feComposite in="SourceGraphic"/></filter></defs><g transform="translate(-10.5 -132.5)"><g class="d" transform="matrix(1, 0, 0, 1, 10.5, 132.5)"><rect class="a" width="300" height="50" rx="6" transform="translate(16.5 16.5)"/></g><g class="c" transform="matrix(1, 0, 0, 1, 10.5, 132.5)"><path class="b" d="M6,0H294a6,6,0,0,1,6,6V44a6,6,0,0,1-6,6H6a6,6,0,0,1-6-6V6A6,6,0,0,1,6,0Z" transform="translate(16.5 16.5)"/></g></g></svg>