<svg xmlns="http://www.w3.org/2000/svg" width="153" height="135.824" viewBox="0 0 153 135.824"><defs><style>.a{fill:#d9d9e8;}.b{fill:#fac3d2;}.c{fill:#08a5a5;}.d{fill:#10ced5;}.e{fill:#211042;}.f{fill:#fff;}.g{fill:none;}</style></defs><g transform="translate(-1867 -464.864)"><path class="a" d="M2017.863,803.924c-2.653,9.854-136.8,9.022-136.644,0,2.652-9.854,136.8-9.022,136.644,0" transform="translate(-9.076 -211.901)"/><path class="b" d="M1968.248,686l-2.869,42.02-3.815.829a79.174,79.174,0,0,0-.127-11.848c-.593-4.337-2.01-9.575-.885-16.122s.523-15.458.523-15.458Z" transform="translate(-59.444 -140.779)"/><path class="b" d="M2007.072,687.4l2.812,42.023h-3.671a71.552,71.552,0,0,0-1.719-10.389c-1.171-4.218-3.28-9.217-3.046-15.856s-1.562-15.388-1.562-15.388Z" transform="translate(-84.821 -142.044)"/><path class="a" d="M1960.13,754.194c.32,2.454.812,4.682,1.114,6.7.649,4.336.14,11.848.14,11.848l4.171-.829,1.323-17.723Z" transform="translate(-59.445 -184.679)"/><path class="a" d="M2006.174,754.194c.691,2.79,1.606,5.246,2.255,7.475a68.519,68.519,0,0,1,1.8,10.388h3.849l-1.253-17.863Z" transform="translate(-88.835 -184.679)"/><path class="c" d="M1959.452,647.294l-1.414,50.113s1.7,1.695,7.5.172c0,0,3.144-35.716,3.568-38.681s1.771-2.966,1.771-2.966l6.078,41.59s4.46.385,7.162-.836l-3.9-50.248Z" transform="translate(-58.109 -115.898)"/><path class="a" d="M2029.213,598.531a130.455,130.455,0,0,0,2.867,28.313,2.089,2.089,0,0,0,.649,3.089c1.976,1.25,4.779-.873,4.3-2.055s-1.269-1.285-1.269-1.285.914-1.607-.515-1.483c0,0-.841-16.955-.507-27.718Z" transform="translate(-103.534 -84.593)"/><path class="d" d="M1980.238,572.406a13.5,13.5,0,0,0,5.3.19,9.4,9.4,0,0,0,1.747-.482s.495-7.377-2.723-11.143-10.584-6.041-10.584-6.041c-7.623-2.132-10.146-2.211-16.332.651a50.983,50.983,0,0,0-5.255,3.09,7.585,7.585,0,0,0,.814,4.788,7.322,7.322,0,0,0,3.437,3.432l3.377-2.141s-1.8,5.233-2.879,9.97a124.576,124.576,0,0,0-1.85,14.982,16.771,16.771,0,0,0,5.624,1.373c6.657.8,12.888-2.833,15.8-2.019a74.1,74.1,0,0,1,2.919-18.757l.047,1.96s.209.065.561.149" transform="translate(-54.447 -56.498)"/><path class="d" d="M2002.553,560.019a5.168,5.168,0,0,0,2.935.116,2.432,2.432,0,0,0,1.578-1.688l.385-1.378c-2.062-.926-3.666-1.729-3.666-1.729a46.377,46.377,0,0,0-4.688-.861,4.454,4.454,0,0,0,1.827,4.874,7.185,7.185,0,0,0,1.629.665" transform="translate(-84.221 -57.202)"/><path class="e" d="M1964.624,796.5c.711-.075.631-2.414,1.56-2.191s.817,1.373.371,2.191a1.874,1.874,0,0,0-.185,1.486s.439.765,2.333,1.173a6.862,6.862,0,0,0,2.948.126,1.82,1.82,0,0,1,.409,2.339h-13.005s.069-4.991.816-5.273.879,1.025.879,1.025Z" transform="translate(-58.758 -210.277)"/><rect class="e" width="13.005" height="1.376" transform="translate(1900.296 591.351)"/><path class="e" d="M2017.741,796.5c.711-.075.631-2.414,1.56-2.191s.817,1.373.371,2.191a1.873,1.873,0,0,0-.186,1.486s.439.765,2.333,1.173a6.861,6.861,0,0,0,2.948.126,1.82,1.82,0,0,1,.409,2.339h-13.005s.069-4.991.817-5.273.879,1.025.879,1.025Z" transform="translate(-92.662 -210.277)"/><rect class="e" width="13.005" height="1.376" transform="translate(1919.509 591.351)"/><path class="c" d="M2016.588,781.294c.449.224.57,2.384.535,2.678s-1.469.691-4.146,1.209-4.025.467-4.112.208-.781-2.848-.363-2.885,7.746-1.379,8.085-1.209" transform="translate(-90.236 -201.967)"/><path class="c" d="M1964.919,782.725c.387.32.018,2.452-.082,2.729s-1.587.342-4.313.244-4.027-.452-4.052-.725-.119-2.95.3-2.893,7.858.4,8.15.644" transform="translate(-57.092 -202.478)"/><path class="a" d="M2006.376,517.7,2002,524.973a1.09,1.09,0,0,0-.159.663,4.294,4.294,0,0,0,2.33,3.243c1.728,1.038,2.783.757,3.293.455a1.4,1.4,0,0,0,.486-.494l2.063-3.432s3.225,2.056,4.909-.746l6.842-11.381-9.354-5.624-5.535,3-2.064,6.221Z" transform="translate(-86.069 -27.315)"/><path class="e" d="M2034.626,535.393a10.423,10.423,0,0,0-.113,1.173.765.765,0,0,1-.29.667c-.276.159-.685.024-.974-.035-.161-.032-.289.205-.12.285.5.235,1.2.352,1.517-.23a3.219,3.219,0,0,0,.083-1.86c-.008-.053-.1-.051-.1,0" transform="translate(-105.989 -44.994)"/><path class="e" d="M2042.189,535.169c-.217.362-.234.751-.038.87s.532-.079.75-.441.235-.751.037-.869-.532.08-.749.441" transform="translate(-111.711 -44.573)"/><path class="e" d="M2033.927,530.2c-.217.362-.234.751-.037.869s.532-.079.75-.441.235-.751.037-.87-.532.08-.75.441" transform="translate(-106.438 -41.402)"/><path class="e" d="M2011.579,502.275a4.278,4.278,0,0,1,3.544-1.828c2.915.255,6.7,3.527,8.03,4.318,1.719,1.025,4.255-.071,4.865,1.079.757,1.429-1.793,5.758-2.227,6.4a2.792,2.792,0,0,1-.927.9,2.035,2.035,0,0,1-2.779-1.061l-1.156-1.123a7.128,7.128,0,0,1-1.2-.546c-.3-.2-.559-.47-.875-.651a2.458,2.458,0,0,0-1.923-.129c-.631.194-1.877,1.927-1.737.936.125-.883.5-1.582-.162-1.973a1.223,1.223,0,0,0-1.754.851,5.561,5.561,0,0,1-.02,1.143c-.212.629-1.109.82-1.316,1.452-.078.238-.04.5-.1.745-.163.685-1.024,1.073-1.081,1.775a4.164,4.164,0,0,1-1.749-2.491,8.648,8.648,0,0,1-.163-3.1,11,11,0,0,1,.921-3.678,20.058,20.058,0,0,1,1.8-3.022" transform="translate(-90.505 -22.706)"/><path class="c" d="M2163.9,739.055l2.337,24.015c0,.674,3.016,1.221,6.736,1.221s6.737-.547,6.737-1.221l2.339-24.015Z" transform="translate(-189.509 -175.016)"/><path class="c" d="M2179.737,737.6a42.975,42.975,0,0,0-16.131,0h-1.746v1.008c0,.978,4.392,1.772,9.812,1.772s9.811-.794,9.811-1.772V737.6Z" transform="translate(-188.209 -173.601)"/><path class="d" d="M2181.483,735.824c0,.978-4.393,1.772-9.811,1.772s-9.812-.793-9.812-1.772,4.392-1.771,9.812-1.771,9.811.793,9.811,1.771" transform="translate(-188.209 -171.823)"/><path class="e" d="M2173.245,736.537c-4.926,0-8.92.721-8.92,1.61,1.549.61,4.959,1.034,8.92,1.034s7.37-.424,8.92-1.034c0-.889-3.993-1.61-8.92-1.61" transform="translate(-189.782 -173.409)"/><path class="e" d="M2032.782,653.451c-.044-.2-.083-.4-.135-.6-.013-.05-.024-.1-.034-.153.059.292-.006-.054-.044-.17-.044-.134-.093-.268-.14-.4-.126-.362-.253-.723-.379-1.085q-1.409-4.014-2.843-8.021c-1.764-4.938-3.532-9.873-5.353-14.792-2.826-7.632-5.739-15.231-8.643-22.832q-6.1-15.966-12.25-31.913c-.609-1.583-1.25-3.157-1.8-4.764a.9.9,0,1,0-1.651.7c1.345,3.082,2.478,6.272,3.7,9.406q1.655,4.26,3.307,8.519,2.972,7.666,5.932,15.335c3.048,7.9,6.05,15.815,9.119,23.7,2.02,5.191,4.012,10.393,6.09,15.562,1.157,2.875,2.264,5.773,3.379,8.665.273.709.526,1.43.817,2.131a3.121,3.121,0,0,0,.438.876.125.125,0,0,1,.017.033c.138.272.536.077.475-.2" transform="translate(-84.519 -65.887)"/><path class="a" d="M1944.767,572.163c-4.424,4.177-6.111,7.089-1.683,11.36,5.63,5.43,24.062,2.455,24.062,2.455s-.007.722,1.011,1.175c1.266.563,1.956.4,1.98-2.394.009-1.026-.561-1.5-1.819-2.015a1.922,1.922,0,0,0-2.016.375s-17.936-.175-18.086-4.745a11.81,11.81,0,0,1-2.551-2.923,6.658,6.658,0,0,1-.9-3.286" transform="translate(-46.908 -68.489)"/><path class="d" d="M2076.738,802.774c-.28.307-.865.317-.979.717a.838.838,0,0,0,.066.489q.386,1.106.772,2.21a2.785,2.785,0,0,0,1.206,1.756.539.539,0,0,0,.291.062.682.682,0,0,0,.308-.16,45.972,45.972,0,0,1,5.855-3.415,57.831,57.831,0,0,0,6.509-4.127,1.52,1.52,0,0,0,.455-.446,1.009,1.009,0,0,0-.031-.941,2.4,2.4,0,0,0-.652-.723,16.238,16.238,0,0,0-1.971-1.3,1.035,1.035,0,0,0-.44-.177,1.017,1.017,0,0,0-.534.166q-.887.477-1.73,1.032" transform="translate(-133.24 -211.822)"/><path class="e" d="M2089.483,796.306a.494.494,0,0,0-.208-.208l-.964-.629a1.163,1.163,0,0,0-1.577-.054l-3.2,1.913a7.76,7.76,0,0,0-.452-.7,1.1,1.1,0,0,0-.7-.518,1.165,1.165,0,0,0-.456.075l-1.181.361a.817.817,0,0,0-.47.273.828.828,0,0,0,.039.739q.267.688.534,1.377-1.785,1.067-3.569,2.134c-.216-.1-.475.1-.526.333a1.211,1.211,0,0,0,.135.7c.213.518.528,1.114,1.084,1.168a1.56,1.56,0,0,0,.864-.265q4.508-2.437,8.938-5.008a4.741,4.741,0,0,0,1.611-1.287.449.449,0,0,0,.1-.4" transform="translate(-133.873 -210.811)"/><path class="f" d="M2104.8,802.4c1.816,0,2.478-1.093,4.074-1.481,1.4-.341,3.457.469,4.581-.438a25.507,25.507,0,0,0,3.484-3.413,14.268,14.268,0,0,1,2.752-2.857,3.546,3.546,0,0,1,3.749-.338c1.091.685,1.479,2.051,2.023,3.219a10.357,10.357,0,0,0,9.451,5.681" transform="translate(-151.785 -209.75)"/><rect class="g" width="153" height="135.824" transform="translate(1867 464.863)"/></g></svg>