<svg xmlns="http://www.w3.org/2000/svg" xmlns:xlink="http://www.w3.org/1999/xlink" width="333" height="83" viewBox="0 0 333 83"><defs><style>.a{fill:url(#a);}.b{filter:url(#e);}.c{filter:url(#b);}</style><linearGradient id="a" x1="0.5" x2="0.5" y2="1" gradientUnits="objectBoundingBox"><stop offset="0" stop-color="#10ced5"/><stop offset="1" stop-color="#1d9ea2"/></linearGradient><filter id="b" x="0" y="0" width="327" height="77" filterUnits="userSpaceOnUse"><feOffset dx="-3" dy="-3" input="SourceAlpha"/><feGaussianBlur stdDeviation="4.5" result="c"/><feFlood flood-color="#d6d6d6" flood-opacity="0.259"/><feComposite operator="in" in2="c"/><feComposite in="SourceGraphic"/></filter><filter id="e" x="6" y="6" width="327" height="77" filterUnits="userSpaceOnUse"><feOffset dx="3" dy="3" input="SourceAlpha"/><feGaussianBlur stdDeviation="4.5" result="f"/><feFlood flood-color="#666" flood-opacity="0.502"/><feComposite operator="in" in2="f"/><feComposite in="SourceGraphic"/></filter></defs><g transform="translate(-10.5 -132.5)"><g class="c" transform="matrix(1, 0, 0, 1, 10.5, 132.5)"><path class="a" d="M6,0H294a6,6,0,0,1,6,6V44a6,6,0,0,1-6,6H6a6,6,0,0,1-6-6V6A6,6,0,0,1,6,0Z" transform="translate(16.5 16.5)"/></g><g class="b" transform="matrix(1, 0, 0, 1, 10.5, 132.5)"><rect class="a" width="300" height="50" rx="6" transform="translate(16.5 16.5)"/></g></g></svg>