<svg xmlns="http://www.w3.org/2000/svg" xmlns:xlink="http://www.w3.org/1999/xlink" width="151.346" height="125.884" viewBox="0 0 151.346 125.884"><defs><style>.a{fill:none;}.b{clip-path:url(#a);}.c{fill:#d9d9e8;}.d{fill:#211042;}.e{fill:#08a5a5;}.f{fill:#10ced5;}.g{fill:#fff;}.h{fill:#fbbe68;}</style><clipPath id="a"><rect class="a" width="151.346" height="125.884"/></clipPath></defs><g transform="translate(-63.417 -4.143)"><g transform="translate(63.417 4.143)"><g class="b" transform="translate(0)"><path class="c" d="M214.764,366.83c0,2.269-33.88,4.109-75.673,4.109s-75.672-1.84-75.672-4.109,33.88-4.109,75.672-4.109,75.673,1.84,75.673,4.109" transform="translate(-63.418 -245.055)"/><path class="c" d="M257.278,95.195l-3.793.038s-4.3-1.858-4.607.929.774,4.645,1.781,2.4c.27-.62.425-.891.425-.891l.774.426,1.9-1.781,3.329.426Z" transform="translate(-187.983 -64.935)"/><path class="c" d="M281.35,121.15l-5.961-.968s-1.626-.658-1.935,2.4.116,4.916,1.858,3.368a4.646,4.646,0,0,0,1.7-3.29l3.914-.023Z" transform="translate(-204.468 -82.064)"/><path class="d" d="M347,14.885A10.45,10.45,0,0,1,344,11.673c3.9-3.827,14.829-8.61,20.3-7.312,4.647,10.934,1.845,22.62,1.845,22.62l-2.666.409L363,24.247l-.137,3.212-3.28.615L355,28.69l-.409-1.982-.274,1.914-3.554.751L348.917,19.19Z" transform="translate(-251.925 -4.144)"/><path class="e" d="M379.694,156.788s8.175,1.563,11.783,13.947a26.936,26.936,0,0,1-2.646,21.521s5.41,3.127,6.733,11.422-1.8,20.078-1.8,20.078l-2.044-.841L377.41,170.855l-4.81,24.406s5.771,6.492,2.525,16.471-5.651,12.384-5.651,12.384l-1.683-1.683-.04-64.464Z" transform="translate(-267.885 -106.698)"/><path class="f" d="M305.859,78.745a27.326,27.326,0,0,1,14.629,5.4c-1.646,9.417-3.749,19.84-3.749,19.84s2.286.183-.732,1.1-11.155.457-11.155.457l-3.474-15.36s.823-4.3,2.561-6.4l-11.612,4.754-18.2-2.285.092-2.195,16.549.64s0-.915,1.189.091c3.291-1.371,13.9-6.034,13.9-6.034" transform="translate(-204.986 -54.265)"/><path class="c" d="M350.773,29.655s-1.884,8.046.87,14.135c2.972.725,9.061-1.087,9.061-1.087l.145,5.291s-3.769,4.349-1.16,3.48,5.8-4.132,5.8-4.132l-1.667-6.524.58-11.67s-11.743-1.812-13.628.507" transform="translate(-256.056 -20.49)"/><path class="d" d="M356.7,27.317s1.777,4.3,4.784,6.082,3.212,1.23,1.435-.2a11.365,11.365,0,0,0,6.218,1.23l.41-7.791s-11.139-.546-12.847.684" transform="translate(-260.461 -19.172)"/><path class="c" d="M390.349,49.652s2.03-3.189,3.407-.435-2.537,4.567-3.479,2.972" transform="translate(-283.019 -33.673)"/><path class="f" d="M329.979,91.005l-14.446,11.246-18.652-.914-.457,1.737,19.932,3.109,17.281-10.972" transform="translate(-219.963 -62.502)"/><path class="d" d="M360.575,114.083c1.307-.918,2.635-1.8,3.966-2.683l4.018-2.6,4.063-2.53c1.363-.831,2.728-1.656,4.115-2.448-1.306.918-2.635,1.8-3.966,2.683l-4.018,2.6-4.063,2.529c-1.362.831-2.728,1.656-4.114,2.449" transform="translate(-263.063 -71.113)"/><path class="d" d="M371.849,91.005c-1.046.909-2.117,1.786-3.191,2.659l-3.251,2.584-3.3,2.517c-1.11.828-2.223,1.65-3.362,2.441,1.046-.909,2.117-1.786,3.191-2.66l3.251-2.583,3.3-2.517c1.11-.828,2.223-1.65,3.361-2.441" transform="translate(-261.833 -62.502)"/><path class="d" d="M343.973,356.834,332.3,361.841h14.654l-1.32-3.87Z" transform="translate(-244.066 -241.1)"/><path class="d" d="M426.283,358.3l-7.082,4.922h10.034l-.908-4.081Z" transform="translate(-302.451 -242.085)"/><path class="d" d="M354.133,51.791c0,.773-.043,1.543-.111,2.309l-.008.1-.1.021c-.479.1-.955.219-1.438.3l.006-.279c.909.238,1.813.5,2.7.822-.936-.131-1.855-.327-2.769-.545l-.584-.139.589-.139c.477-.113.961-.192,1.443-.285l-.107.117c.1-.763.218-1.524.378-2.281" transform="translate(-257.188 -36.156)"/><path class="d" d="M364.805,58.858a5.652,5.652,0,0,1-.24,1.706,2.938,2.938,0,0,1-.934,1.5,1.722,1.722,0,0,1-1.755.113,5.5,5.5,0,0,1-.755-.44c-.214-.2-.433-.382-.637-.581.248.148.481.307.72.458a5.624,5.624,0,0,0,.755.347,1.511,1.511,0,0,0,1.495-.14,2.886,2.886,0,0,0,.894-1.33,9.8,9.8,0,0,0,.458-1.631" transform="translate(-263.002 -40.904)"/><path class="d" d="M393.678,50.912a1.1,1.1,0,0,0-.858-.038,1.837,1.837,0,0,0-.675.517,6.631,6.631,0,0,0-.865,1.566l-.094-.165a2.913,2.913,0,0,1,.35.113c.1.06.271.079.3.3-.037.2-.186.224-.285.285a1.586,1.586,0,0,1-.34.107,3.11,3.11,0,0,0,.3-.182c.086-.059.189-.164.171-.207.009-.032-.115-.09-.211-.113a3.046,3.046,0,0,0-.328-.06l-.146-.022.052-.142a7.991,7.991,0,0,1,.359-.869,3.538,3.538,0,0,1,.536-.791,1.646,1.646,0,0,1,.826-.515,1.016,1.016,0,0,1,.91.216" transform="translate(-283.501 -35.398)"/><path class="d" d="M363.052,51.448c0,.3-.158.549-.354.549s-.354-.245-.354-.549.159-.549.354-.549.354.245.354.549" transform="translate(-264.252 -35.556)"/><path class="d" d="M354.794,51.6c0,.3-.158.549-.354.549s-.354-.245-.354-.549.159-.55.354-.55.354.246.354.55" transform="translate(-258.704 -35.655)"/><path class="d" d="M353.8,46.443s-1.6-1.8-2.022.2" transform="translate(-257.15 -32.062)"/><path class="d" d="M360.837,45.751s1.453-2.208,2.608.067" transform="translate(-263.239 -31.451)"/><path class="d" d="M124.637,259.374H120.4l18.068-55.793H142.7Z" transform="translate(-101.703 -138.136)"/><path class="d" d="M289.894,259.374h4.235l-18.068-55.793h-4.235Z" transform="translate(-203.438 -138.136)"/><rect class="d" width="40.472" height="6.207" transform="translate(34.424 76.14)"/><path class="g" d="M169.911,238.268a.418.418,0,1,1-.419-.419.419.419,0,0,1,.419.419" transform="translate(-134.403 -161.159)"/><path class="g" d="M165.922,249.834a.418.418,0,1,1-.419-.418.419.419,0,0,1,.419.418" transform="translate(-131.723 -168.931)"/><path class="g" d="M287.6,238.268a.419.419,0,1,0,.419-.419.419.419,0,0,0-.419.419" transform="translate(-214.036 -161.159)"/><path class="g" d="M291.59,249.834a.418.418,0,1,0,.418-.418.418.418,0,0,0-.418.418" transform="translate(-216.716 -168.931)"/><rect class="d" width="64.263" height="2.762" transform="translate(23.447 62.882)"/></g></g><g transform="translate(89.156 32.609)"><path class="e" d="M259.874,100.526h0a.685.685,0,0,1,0-.968l8.466-8.466a.685.685,0,0,1,.968.969l-8.466,8.466a.685.685,0,0,1-.969,0" transform="translate(-221.012 -90.891)"/><path class="f" d="M244.273,105.878H224.7l1.843,8.356a2.263,2.263,0,0,0,2.209,1.775H240.22a2.263,2.263,0,0,0,2.209-1.775Z" transform="translate(-197.516 -100.96)"/><path class="f" d="M242.091,105.285H220.565a.566.566,0,0,1,0-1.131h21.526a.566.566,0,0,1,0,1.131" transform="translate(-194.357 -99.802)"/><path class="f" d="M171.048,149.17l-.718-1.1a1.407,1.407,0,0,1-.223-.64l-.07-.771-.276-3.049-.1-1.1H167.87l-.1,1.1-.276,3.049-.07.771a1.411,1.411,0,0,1-.223.64l-.719,1.1a1.4,1.4,0,0,0-.227.766v9.134a.91.91,0,0,0,.91.91h3.2a.909.909,0,0,0,.91-.91v-9.134a1.4,1.4,0,0,0-.227-.766" transform="translate(-158.25 -125.57)"/><path class="e" d="M172.74,141.214l-.237-.382a.159.159,0,0,0-.136-.076h-1.428a.16.16,0,0,0-.137.076l-.237.382a.076.076,0,0,0,.064.117h2.047a.076.076,0,0,0,.064-.117" transform="translate(-161.137 -124.393)"/><rect class="e" width="3.289" height="2.206" transform="translate(9.736 27.603)"/><path class="h" d="M143.036,180.256l-.051-.044.051.044" transform="translate(-142.615 -150.902)"/><path class="h" d="M142.622,179.912c-.033-.028-.067-.055-.1-.081.034.025.067.053.1.081" transform="translate(-142.303 -150.646)"/><path class="h" d="M141.964,179.42c-.036-.026-.072-.052-.108-.075.036.024.073.048.108.075" transform="translate(-141.856 -150.319)"/></g></g></svg>