<svg xmlns="http://www.w3.org/2000/svg" xmlns:xlink="http://www.w3.org/1999/xlink" width="111.014" height="126.73" viewBox="0 0 111.014 126.73"><defs><style>.a{fill:none;}.b{clip-path:url(#a);}.c{clip-path:url(#b);}.d{fill:#d9d9e8;}.e{fill:#211042;}.f{fill:#08a5a5;}.g{clip-path:url(#c);}.h{opacity:0.35;}.h,.p{mix-blend-mode:multiply;isolation:isolate;}.i{clip-path:url(#d);}.j{fill:#648fb1;}.k{fill:#6c543b;}.l{fill:#10ced5;}.m{fill:#f5f6ff;}.n{fill:#483a87;}.o{clip-path:url(#f);}.p{opacity:0.29;}.q{clip-path:url(#g);}.r{fill:#826e4f;}</style><clipPath id="a"><rect class="a" width="111.014" height="126.73" transform="translate(0 0)"/></clipPath><clipPath id="b"><rect class="a" width="111.014" height="126.73"/></clipPath><clipPath id="c"><path class="a" d="M1580.671,596.152c3.105,24.734,30.262,36.425,30.262,36.425l2.273-3.307s-.62-1.654-4.547-6.82c-2.575-3.389-7.475-6.572-10.632-8.63a6.573,6.573,0,0,1-2.78-5.046,53.043,53.043,0,0,0-8.5-23.734s-2.524-3.743-4.478-3.742c-1.774,0-3.08,3.085-1.6,14.855" transform="translate(-1580.03 -581.298)"/></clipPath><clipPath id="d"><rect class="a" width="6.425" height="15.991"/></clipPath><clipPath id="f"><path class="a" d="M1537.2,451.329c-1,1.128-2.029,10.61.723,12.664,2.113,1.577,4.141-1.094,4.141-1.094,1.327,1.28.857,5.114.663,6.124a16.9,16.9,0,0,1-1.549,3.313s.064.342,2.394.493,5.442-4.3,5.442-4.3c-2.021-.919-2.108-7.647-2.108-7.647,2.51-2.167.688-13.2-3.162-13.619a6.034,6.034,0,0,0-.654-.036c-3.392,0-4.946,3.038-5.889,4.1" transform="translate(-1536.151 -447.229)"/></clipPath><clipPath id="g"><rect class="a" width="2.194" height="4.002"/></clipPath></defs><g transform="translate(-1337.048 -436.235)"><g class="b" transform="translate(1337.048 436.235)"><g transform="translate(0 0)"><g class="c"><path class="d" d="M1536.652,560.61l1.89,1.121s4.13-16.3,5.954-27.231c-2.092-1.059-3.048-3.323-4.41-3.137-2.274,9.714-3.433,29.247-3.433,29.247" transform="translate(-1474.748 -501.853)"/><path class="d" d="M1677.536,739.717l4.139,2.006,1.208-1.5-2.933-2.172s-3.105.836-2.415,1.671" transform="translate(-1571.87 -644.444)"/><path class="e" d="M1681.47,745.147s-6.9,3.145-5,7.491l5.52-7.491" transform="translate(-1570.975 -649.342)"/><path class="f" d="M1586.75,585.041a53.049,53.049,0,0,1,8.5,23.734,6.572,6.572,0,0,0,2.781,5.046c3.156,2.057,8.057,5.242,10.632,8.63,3.927,5.167,4.547,6.82,4.547,6.82l-2.273,3.307s-27.157-11.691-30.262-36.424,6.08-11.112,6.08-11.112" transform="translate(-1504.672 -536.309)"/></g></g><g transform="translate(75.357 44.989)"><g class="g"><g class="h" transform="translate(0.683 13.793)"><g class="i"><path class="j" d="M1585.581,641.764s5.993-12.607,1.24-15.5-6.821,7.647-1.24,15.5" transform="translate(-1582.23 -625.773)"/></g></g></g></g><g transform="translate(0 0)"><g class="c"><path class="d" d="M1534.267,768.281c.6.15,1.6,1.406,2.48,1.033.219-1.063,1.826-6.7,2.253-8.242l-3.231-.441c-.289,1.924-.139,6.17-.675,7.443-.122.288-1.131.131-.827.207" transform="translate(-1473.063 -660.024)"/><path class="f" d="M1554.441,580.172c-4.364,0-9.042-4.434-9.042-4.434s-.47,3.3-1.5,10.427c-.486,3.369-4.366,20.329-5.374,24.8-.747,3.316-4.133,16.122-4.133,23.975l5.58.826c.781-2.826,2.209-5.753,2.687-8.061,1.241-5.993,4.766-15.254,5.788-17.774s8.263-12.526,9.3-18.188c1.142-6.233-2.26-11.574-3.307-11.574" transform="translate(-1473.19 -532.473)"/><path class="k" d="M1476.753,601.081a.62.62,0,0,0-.318-.157.6.6,0,0,0-.388.054.586.586,0,0,0-.245.26.861.861,0,0,0-.047.155,1.19,1.19,0,0,0,0,.157c.068-.088.127-.172.188-.247a.784.784,0,0,1,.211-.176.993.993,0,0,1,.6-.048" transform="translate(-1432.733 -549.84)"/><path class="e" d="M1466.71,560.283h-.517c0-2.748-1.393-4.983-3.105-4.983s-3.1,2.235-3.1,4.983h-.518c0-3.048,1.592-5.435,3.623-5.435s3.623,2.388,3.623,5.435" transform="translate(-1421.499 -518.062)"/><path class="l" d="M1455.891,589.687l-18.487.228,3.478-21.006,11.386-.9Z" transform="translate(-1406.28 -527.139)"/><path class="e" d="M1463.372,559.555h-.518c0-2.748-1.393-4.983-3.105-4.983s-3.106,2.235-3.106,4.983h-.518c0-3.048,1.591-5.435,3.623-5.435s3.623,2.388,3.623,5.435" transform="translate(-1419.196 -517.56)"/><path class="m" d="M1458.63,590.3l4.658-.452v7.679l-4.658.451Z" transform="translate(-1420.923 -542.21)"/><path class="d" d="M1369.626,703.889l.509-19.348,21.447-2.77-1.081,22.118Z" transform="translate(-1359.522 -605.622)"/><path class="f" d="M1377.511,642.928l.874-19.348,36.8-2.77-1.854,22.118Z" transform="translate(-1364.962 -563.567)"/><path class="l" d="M1422.16,676.188l.509-28.95,21.447-4.145,1.466,32.077Z" transform="translate(-1395.764 -578.939)"/><path class="n" d="M1364.248,743.114h42.26l3.055-16.292-45.518,3.7Z" transform="translate(-1355.672 -636.7)"/><path class="e" d="M1384.007,650.092h-.368a2.248,2.248,0,1,0-4.413,0h-.368a2.595,2.595,0,1,1,5.149,0" transform="translate(-1365.891 -581.754)"/><path class="l" d="M1376.318,665.883l-13.137.122,2.471-11.282,8.091-.486Z" transform="translate(-1355.077 -586.627)"/><path class="e" d="M1381.636,649.7h-.368a2.248,2.248,0,1,0-4.413,0h-.368a2.595,2.595,0,1,1,5.149,0" transform="translate(-1364.256 -581.485)"/><path class="d" d="M1541.178,472.336a16.927,16.927,0,0,0,1.55-3.313c.193-1.01.664-4.844-.664-6.125,0,0-2.028,2.672-4.141,1.094-2.752-2.055-1.726-11.536-.724-12.664s2.693-4.485,6.544-4.064,5.673,11.452,3.162,13.619c0,0,.087,6.729,2.108,7.648,0,0-3.111,4.45-5.441,4.3s-2.395-.494-2.395-.494" transform="translate(-1474.402 -443.819)"/></g></g><g transform="translate(61.749 3.41)"><g class="o"><g class="p" transform="translate(5.518 13.116)"><g class="q"><path class="r" d="M1554.145,493.085l.193-1.01a7.385,7.385,0,0,0,1.8-2.554s-.278,2.823-1.485,3.654-.507-.09-.507-.09" transform="translate(-1553.942 -489.521)"/></g></g></g></g><g transform="translate(0 0)"><g class="c"><path class="l" d="M1557.159,510.023c-4.069-2.026-7.268,2.369-8.174,2.992s-.415-1.965-.415-1.965l-1.618,1.8c-3.937,8-2.128,7.2-2.016,11.753.16,6.531,4.235,15.185,5.84,15.945l5.108-2.5c3.693-1.6,6.209-2.795,5.6-5.247-.392-1.57-2.417-5.08-1.381-9.63.745-3.272,1.124-11.124-2.944-13.151" transform="translate(-1480.11 -486.773)"/><path class="e" d="M1529,446.819s-2.788.021-2.853-1.647,2.655-1.677,2.655-1.677-4.2-.767-3.157-2.646,5.77-1.447,5.77-1.447-1.634-1.41-.726-2.716,7.16.361,7.82,3.364c0,0,4.775-1.063,3.883,5.362s-2.9,7.941-2.9,7.941a5.173,5.173,0,0,1-1.632-3.366.92.92,0,0,0,1.282-.322c.488-.8.71-2.4.2-2.814s-2.19,1.628-2.19,1.628-2.1-1.361-1.765-2.793-.772-1.222-.772-1.222-3.278,2.234-5.219.936a4.1,4.1,0,0,0-.394,1.419" transform="translate(-1467.04 -436.234)"/><path class="e" d="M1368.49,828.773a2.953,2.953,0,1,1-2.952-2.953,2.953,2.953,0,0,1,2.952,2.953" transform="translate(-1354.664 -704.997)"/><path class="e" d="M1479.574,828.773a2.953,2.953,0,1,1-2.953-2.953,2.954,2.954,0,0,1,2.953,2.953" transform="translate(-1431.297 -704.997)"/><path class="e" d="M1391.589,697.246h-49.737l-4.8-33.633,62.085-6.14Zm-49.168-.656h48.624l7.278-38.377-60.53,5.987Z" transform="translate(-1337.047 -588.86)"/><path class="e" d="M1404.126,795.891h-48.947v-.656h48.947c1.409,0,4.318-1.434,4.318-5.866,0-4.306-4.194-5.066-4.372-5.1l.109-.648c.05.009,4.919.877,4.919,5.744,0,4.928-3.351,6.522-4.974,6.522" transform="translate(-1349.556 -675.887)"/><rect class="e" width="0.656" height="33.923" transform="translate(7.593 74.262) rotate(-4.993)"/><rect class="e" width="0.656" height="35.113" transform="translate(17.763 72.927) rotate(-1.07)"/><rect class="e" width="35.787" height="0.656" transform="matrix(0.037, -0.999, 0.999, 0.037, 27.925, 108.016)"/><rect class="e" width="37.32" height="0.656" transform="translate(36.793 107.99) rotate(-83.43)"/><rect class="e" width="38.567" height="0.656" transform="matrix(0.162, -0.987, 0.987, 0.162, 46.639, 107.975)"/><rect class="e" width="58.91" height="0.656" transform="translate(1.332 81.457) rotate(-4.48)"/><rect class="e" width="55.497" height="0.656" transform="translate(2.656 90.627) rotate(-2.346)"/><rect class="e" width="51.842" height="0.656" transform="matrix(1, -0.006, 0.006, 1, 3.981, 100.134)"/><path class="e" d="M1522.688,782.541s-5.894-4.77-8.937-1.133l9.167,1.6" transform="translate(-1458.949 -673.414)"/><path class="l" d="M1566.885,512.815c-.649-.232-1.24-1.033-1.654-.826-1.928.622-3.856,4-5.61,8.411a9.4,9.4,0,0,1,5.271,1.863c1.872-5.146,2.95-9.106,1.993-9.448" transform="translate(-1490.593 -488.472)"/><path class="d" d="M1536.393,565.288l1.653,1.447s7.035-15.274,10.822-25.688a9.4,9.4,0,0,0-5.271-1.863c-4.074,10.25-7.2,26.1-7.2,26.1" transform="translate(-1474.569 -507.256)"/><path class="e" d="M1534.393,643l1.447-7.647h.827L1535.274,643l-.881.515" transform="translate(-1473.189 -573.598)"/><path class="e" d="M1530.879,638.269l.057-8.916,1.033.413-.544,8.5Z" transform="translate(-1470.765 -569.46)"/><path class="e" d="M1529.061,622.962l.827-2.274,4.754,3.307s1.86,2.274,0,2.274-5.581-3.307-5.581-3.307" transform="translate(-1469.511 -563.483)"/><path class="d" d="M1531.944,621.443s-3.694-.508-3.355,1.574,2.612,3.321,2.818,1.874-.606-2.1.317-1.874.22-1.574.22-1.574" transform="translate(-1469.17 -563.966)"/><path class="d" d="M1535.943,624.109s-3.693-.508-3.355,1.574,2.612,3.322,2.818,1.875-.606-2.1.317-1.875.219-1.574.219-1.574" transform="translate(-1471.929 -565.805)"/></g></g></g></g></svg>