<svg xmlns="http://www.w3.org/2000/svg" xmlns:xlink="http://www.w3.org/1999/xlink" width="123" height="83" viewBox="0 0 123 83"><defs><style>.a{fill:#d0d5df;}.b{filter:url(#c);}.c{filter:url(#a);}</style><filter id="a" x="6" y="6" width="117" height="77" filterUnits="userSpaceOnUse"><feOffset dx="3" dy="3" input="SourceAlpha"/><feGaussianBlur stdDeviation="4.5" result="b"/><feFlood flood-color="#919191" flood-opacity="0.259"/><feComposite operator="in" in2="b"/><feComposite in="SourceGraphic"/></filter><filter id="c" x="0" y="0" width="117" height="77" filterUnits="userSpaceOnUse"><feOffset dx="-3" dy="-3" input="SourceAlpha"/><feGaussianBlur stdDeviation="4.5" result="d"/><feFlood flood-color="#d6d6d6" flood-opacity="0.259"/><feComposite operator="in" in2="d"/><feComposite in="SourceGraphic"/></filter></defs><g transform="translate(-10.5 -132.5)"><g class="c" transform="matrix(1, 0, 0, 1, 10.5, 132.5)"><rect class="a" width="90" height="50" rx="6" transform="translate(16.5 16.5)"/></g><g class="b" transform="matrix(1, 0, 0, 1, 10.5, 132.5)"><path class="a" d="M1.8,0H88.2C89.194,0,90,2.686,90,6V44c0,3.314-.806,6-1.8,6H1.8C.806,50,0,47.314,0,44V6C0,2.686.806,0,1.8,0Z" transform="translate(16.5 16.5)"/></g></g></svg>