<svg xmlns="http://www.w3.org/2000/svg" xmlns:xlink="http://www.w3.org/1999/xlink" width="199.026" height="116.935" viewBox="0 0 199.026 116.935"><defs><style>.a{fill:none;}.b{clip-path:url(#a);}.c{fill:#d9d9e8;}.d{fill:#211042;}.e{fill:#08a5a5;}.f{fill:#10ced5;}.g{fill:#2d4b4c;}</style><clipPath id="a"><rect class="a" width="199.026" height="116.935" transform="translate(0 0)"/></clipPath></defs><g transform="translate(-633.025 -349.012)"><g class="b" transform="translate(633.025 349.012)"><path class="c" d="M832.051,699.436c-3.864,8.232-199.256,7.537-199.026,0,3.863-8.232,199.257-7.537,199.026,0" transform="translate(-633.025 -588.514)"/><path class="d" d="M1094.711,489.642s9.1-8.723,24.651-9.1l-.379-5.5,4.93,1.517-2.465,4.172c-.017,0,11.151,1.134,15.549,12.136-9.386,7.737-13.834,8.7-13.752,8.258-4.848-1.908-29.521-7.248-28.907-10.24" transform="translate(-953.723 -436.628)"/><path class="e" d="M1093.271,577.592h37.954l3.786-59.1h-46.158Z" transform="translate(-949.917 -466.838)"/><path class="e" d="M1080.847,511.825c-5.208-12.494-12.891-.108-2.173,1.829.6-2.312-4.469-4.029-2.642-5.3.835-.354,3.522,4.606,4.984,5.789.359-.238-.157-2.2-.169-2.321" transform="translate(-939.089 -458.369)"/><path class="e" d="M1231.283,511.011c7.4-11.3,13.538,3.711.686,3.315-.819-2.816,3.282-.919,5.031-3.659C1237.518,507.472,1233.069,512.2,1231.283,511.011Z" transform="translate(-1048.935 -458.698)"/><path class="f" d="M1207.022,534.143c-2.729,62.677-1.206,48.651-7.585,50.236l4.93-.091-.105.1c.62-16.527,1.494-33.411,2.76-50.245" transform="translate(-1026.796 -477.715)"/><path class="f" d="M1184.407,533.63c-3.6,62.607-2.083,48.692-8,50.28l4.614-.1-.1.093c.855-16.54,1.977-33.435,3.489-50.273" transform="translate(-1010.782 -477.359)"/><path class="f" d="M1160.069,535.483c-1.264,61.826-.208,48.047-6.214,49.621l4.708-.1-.1.1c.239-16.285.727-32.968,1.609-49.617" transform="translate(-995.107 -478.647)"/><path class="f" d="M1135.058,535.791c.4,16.313.426,33.032.2,49.732-.1,0-4.96-.107-5.192-.111l5.084-.109-.109.109c-.278-16.277-.329-32.959.015-49.621" transform="translate(-978.57 -478.861)"/><path class="f" d="M1035.237,587.934H1000.2l-3.5-54.562h42.616Z" transform="translate(-885.852 -477.179)"/><path class="f" d="M1127.347,527.223c4.8-11.514,11.895-.118,2.006,1.69-.645-1.887,4.337-4.135,2.354-4.858-.811-.266-3.369,4.645-4.547,5.282-.265-.336.17-1.982.187-2.114" transform="translate(-976.489 -469.372)"/><path class="f" d="M987.908,526.458c-7-10.479-12.33,3.531-.634,3.061.762-2.6-3.037-.861-4.645-3.379C982.181,523.2,986.252,527.563,987.908,526.458Z" transform="translate(-874.526 -469.662)"/><path class="e" d="M1094.839,558.193c-2.289,53.18-1.059,41.651-6.479,42.908l4.211-.078-.09.085c.527-14.059,1.274-28.5,2.357-42.915" transform="translate(-949.575 -494.435)"/><path class="e" d="M1075.525,557.754c-3.019,53.112-1.821,41.689-6.836,42.945l3.94-.085-.085.079c.726-14.071,1.686-28.521,2.98-42.939" transform="translate(-935.899 -494.13)"/><path class="e" d="M1054.734,559.336c-1.037,52.444-.226,41.142-5.308,42.383l4.022-.087-.088.085c.2-13.879.62-28.138,1.375-42.38" transform="translate(-922.508 -495.23)"/><path class="e" d="M1033.374,559.6c.34,13.9.364,28.194.172,42.478l-4.434-.1,4.342-.093-.093.093c-.238-13.872-.28-28.131.013-42.382" transform="translate(-908.386 -495.413)"/><path class="e" d="M734.357,569.151l-4.519,10.79-16.968,19.089-1.291-.277c12.545-35.241,15.229-5.563,17.522-38.364Z" transform="translate(-687.635 -495.962)"/><path class="d" d="M816.843,352.67c5.509-7.469-12.973-.427-11.437-.34.032.609.435,8.279.44,8.367C808.955,361.03,815.068,353.912,816.843,352.67Z" transform="translate(-752.801 -349.17)"/><path class="e" d="M768.835,535.884c-7.906,8.532,6.222,21.078,10.942,28.422,1.282.734-1,2.124,1.494,8.47,3.049,6.191,10.871,10.331,10.988,10.6l.645-1.2L776.4,546.95l3.966-7.838Z" transform="translate(-725.802 -478.926)"/><path class="f" d="M747.993,422.813c-6.926-3.583-49.566-18.249-39.932,12.819,2.69,8.717,2.654,9.007,7.47,9.776l1.476-14.756,5.349,1.107,5.533,20.2c-6.466,1.428,10.871,3.571,10.762,3.941-.238.87,11.369-12.514,10.541-18.973l5.9,2.675c-3.769,7.627,2.553,20.988,5.855,6.963,7.64-16-9.223-20.767-12.955-23.747" transform="translate(-684.21 -395.735)"/><path class="c" d="M816.92,359.757c12.9,33.939-13.6,7.014-7.136,23.976l-4.09-3.805,1.237-18.838Z" transform="translate(-753.065 -356.482)"/><path class="c" d="M802.811,382.223c-5.5-6.125-5.4,4.513-.38,2.854" transform="translate(-748.185 -370.766)"/><path class="d" d="M852.089,683.762c.308-.082,10.8-1.758,10.8-1.758l-9.18,5.61C853.158,686.739,850.554,684.939,852.089,683.762Z" transform="translate(-784.986 -580.509)"/><path class="d" d="M706.159,686.7c.82,5.633,4.955,4.4,7.789,5.858-10.539.291-7.929.1-12.022-4.371C702.818,687.722,704.983,685.887,706.159,686.7Z" transform="translate(-680.925 -583.63)"/><path class="d" d="M681.016,498.235c-22.779,7.343-19.712,36.27-.551,38.658,7.428,1.95,17.8-7.044,19.523-18.163,1.971-11.667-16.2-20.14-16.592-20.318l7.405-5.378-4.584-3.79-2.909,7.4" transform="translate(-655.254 -446.502)"/><path class="c" d="M718.5,507.07c-.742-.427-3.809-1.773-4.822,2.355-1.387,5.341,13.907,3.57,4.822-2.355" transform="translate(-689.03 -458.51)"/><path class="d" d="M848.5,527.115c-24.8,28.606.661,41.773,15.3,34.158,17.313-15.435,2.452-34.864-13.447-31.337l2.38-7.846-3.967-.265Z" transform="translate(-775.596 -469.152)"/><path class="c" d="M867.922,535.212c.12-.178-5.708-2.718-7.307.441-.606,4.732,7.885,7,7.307-.441" transform="translate(-791.224 -477.671)"/><path class="d" d="M838.74,387.632a53.161,53.161,0,0,1,3,4.744c-.373-.08-1.186-.135-3.785-.739.613.054.969.025,3.5.365l-.164.243c-.733-1.2-1.6-2.658-2.552-4.614" transform="translate(-775.491 -375.861)"/><path class="d" d="M830.86,402.264c-1.2,1.461-4.863,2.194-5.187-1.51.183-.24.674,4.333,5.187,1.51" transform="translate(-766.954 -384.977)"/><path class="d" d="M803.054,384.662c.971-.62,1.834-.249,2.821,2.249-.436-.132-1.573-.279-.589.771-.235-.08-1.369-1.462.358-1.14l-.176.218c-.115.148-.771-2.767-2.415-2.1" transform="translate(-751.23 -373.613)"/><path class="d" d="M834.141,384.758c-.019,1.44-1.35.357-.361-.788.121.035.228.094.361.788" transform="translate(-772.337 -373.315)"/><path class="d" d="M843.558,384.856c-.019,1.439-1.349.36-.361-.788.122.035.229.094.361.788" transform="translate(-778.883 -373.383)"/><path class="d" d="M831.176,375.5s-1.8-2.16-2.693.621" transform="translate(-768.908 -366.869)"/><path class="d" d="M841.588,375.579s.474-2.19,2.16.3" transform="translate(-778.018 -366.862)"/><path class="d" d="M840.434,461.02c-.752-3.234-1.616-6.5-2.537-10.138a22.783,22.783,0,0,1,2.537,10.138" transform="translate(-775.452 -419.832)"/><path class="d" d="M793.39,556.675a22.7,22.7,0,0,1-2.468-6.8,22.7,22.7,0,0,1,2.468,6.8" transform="translate(-742.795 -488.651)"/><path class="g" d="M740.269,453.176a9.2,9.2,0,0,1,.3-4.557,9.2,9.2,0,0,1-.3,4.557" transform="translate(-707.473 -418.259)"/></g></g></svg>